<svg width="182" height="242" viewBox="0 0 182 242" fill="none" xmlns="http://www.w3.org/2000/svg">
<path d="M28.4288 158.221L30.1417 154.487C36.0926 141.707 41.9145 132.013 47.6073 125.407C53.3734 118.835 59.4944 114.197 65.9702 111.496C72.4461 108.794 79.6003 106.935 87.433 105.919C93.3227 105.075 98.7862 103.903 103.823 102.403C108.861 100.902 113.316 98.7359 117.189 95.9037C121.095 92.9983 124.14 89.1659 126.323 84.4064C128.641 79.354 129.463 74.3691 128.79 69.4515C128.116 64.534 126.197 60.1084 123.031 56.1746C119.938 52.2745 115.935 49.1977 111.022 46.9442C106.256 44.758 101.259 43.7512 96.0325 43.9239C90.8391 44.0234 85.9454 45.5011 81.3515 48.3571C76.7911 51.1399 73.0239 55.483 70.0499 61.3864L25.1736 40.8022C32.2575 26.3258 41.3189 15.8585 52.3579 9.40024C63.4305 2.86876 75.5411 -0.21755 88.6897 0.141309C101.872 0.426958 115.099 3.61368 128.371 9.70147C142.964 16.3947 154.761 24.7307 163.763 34.7094C172.799 44.6149 178.424 55.5706 180.639 67.5764C182.854 79.5822 181.023 91.9921 175.145 104.806C171.215 113.373 166.293 120.332 160.376 125.684C154.567 130.996 147.957 135.054 140.547 137.859C133.17 140.591 125.094 142.426 116.321 143.365C108.949 144.149 102.537 145.551 97.0847 147.57C91.7055 149.623 86.9741 152.682 82.8907 156.747C78.8805 160.845 75.1931 166.466 71.8283 173.608L70.1154 177.342L28.4288 158.221ZM17.9642 238.505C10.6314 235.141 5.53747 229.703 2.68228 222.189C-0.0660023 214.636 0.25904 207.251 3.65741 200.036C6.87554 192.827 12.2266 187.836 19.7105 185.065C27.2678 182.327 34.7128 182.64 42.0455 186.004C49.0116 189.199 53.9589 194.57 56.8875 202.118C59.816 209.665 59.6712 217.043 56.4531 224.253C54.163 229.052 50.8478 232.893 46.5075 235.777C42.274 238.621 37.6233 240.343 32.5552 240.943C27.5208 241.47 22.6571 240.657 17.9642 238.505Z" fill="white"/>
</svg>
