<svg width="182" height="242" viewBox="0 0 182 242" fill="none" xmlns="http://www.w3.org/2000/svg">
<path d="M41.2115 187.822C47.4742 190.695 51.9821 195.44 54.7598 202.183L55.0227 202.841C57.761 209.899 57.6213 216.716 54.6349 223.419C52.6316 227.606 49.8061 230.988 46.1452 233.598L45.4008 234.111L45.3927 234.117C41.4245 236.783 37.0769 238.392 32.3262 238.955C27.663 239.44 23.1656 238.69 18.798 236.687C12.1548 233.64 7.51642 228.813 4.80751 222.131L4.55225 221.479C2.07492 214.652 2.28482 208.036 5.17798 201.519L5.76997 200.228C8.78829 193.857 13.6311 189.451 20.3915 186.945L20.3919 186.946C27.4535 184.388 34.354 184.677 41.2115 187.822ZM127.537 11.5192C141.48 17.9144 152.765 25.7976 161.447 35.1405L162.278 36.0495L162.285 36.0571C170.82 45.4127 176.189 55.6735 178.462 66.854L178.673 67.9389C180.802 79.4798 179.06 91.473 173.327 103.973C169.61 112.076 165.014 118.639 159.565 123.714L159.035 124.2L159.027 124.208C153.409 129.344 147.022 133.268 139.852 135.984C133.098 138.485 125.722 140.224 117.717 141.193L116.11 141.376C108.616 142.173 102.035 143.605 96.3906 145.694L96.3712 145.702C90.7304 147.854 85.7616 151.067 81.48 155.329L81.4703 155.338L81.4614 155.348C77.2486 159.654 73.4461 165.482 70.0195 172.756L70.0141 172.765L69.131 174.69L31.0805 157.237L31.9547 155.331C37.8653 142.638 43.5924 133.134 49.1109 126.726C54.5489 120.528 60.2394 116.179 66.1664 113.587L66.7398 113.342C73.0325 110.716 80.0125 108.898 87.6906 107.902L87.7032 107.901L87.7171 107.898C93.3179 107.096 98.5549 105.999 103.425 104.602L104.395 104.32C109.63 102.76 114.295 100.497 118.369 97.5179L118.382 97.5087C122.578 94.3879 125.829 90.2817 128.141 85.2407C130.521 80.0532 131.444 74.8539 130.835 69.6812L130.771 69.1804C130.048 63.8964 127.978 59.1322 124.589 54.9206L124.588 54.9202C121.285 50.7584 117.025 47.4977 111.856 45.1267C107.125 42.9563 102.166 41.8803 97.0023 41.9051L95.9944 41.9241C90.5996 42.0274 85.5101 43.5228 80.7546 46.3782L80.2951 46.6585C75.8223 49.3918 72.1266 53.4683 69.1672 58.781L27.8919 39.8486C34.4776 27.0265 42.6552 17.6954 52.377 11.7203L53.3682 11.1264L53.3742 11.1227C63.7793 4.98495 75.1203 1.98206 87.4395 2.11747L88.6354 2.14064L88.6459 2.14116C101.527 2.42028 114.487 5.53312 127.537 11.5192Z" stroke="white" stroke-width="4"/>
</svg>
