<svg width="73" height="59" viewBox="0 0 73 59" fill="none" xmlns="http://www.w3.org/2000/svg">
<path d="M5.97101 58.176C4.5372 58.176 3.28262 57.6383 2.20727 56.5629C1.13192 55.4876 0.594238 54.233 0.594238 52.7992V6.2005C0.594238 4.7667 1.13192 3.51212 2.20727 2.43676C3.28262 1.36141 4.5372 0.82373 5.97101 0.82373H66.9077C68.3416 0.82373 69.5961 1.36141 70.6715 2.43676C71.7468 3.51212 72.2845 4.7667 72.2845 6.2005V52.7992C72.2845 54.233 71.7468 55.4876 70.6715 56.5629C69.5961 57.6383 68.3416 58.176 66.9077 58.176H5.97101ZM36.4394 31.1129L5.97101 11.1292V52.7992H66.9077V11.1292L36.4394 31.1129ZM36.4394 25.7361L66.5493 6.2005H6.41907L36.4394 25.7361ZM5.97101 11.1292V6.2005V52.7992V11.1292Z" fill="white"/>
</svg>
