<svg width="71" height="71" viewBox="0 0 84 84" fill="none" xmlns="http://www.w3.org/2000/svg">
<path d="M61.1888 0.60144L21.0184 0.61524C16.292 0.61524 11.5105 1.80545 8.03993 4.44461C5.60958 6.21584 3.69289 8.6004 2.48562 11.3547C1.20226 14.1595 0.398438 17.9199 0.398438 21.1317L0.439836 63.2203C0.446736 68.7539 2.09233 73.7666 5.48011 77.4062C8.8748 81.0493 13.9737 83.2123 20.4216 83.2399L58.5497 83.3986C62.8965 83.4159 69.2271 83.2744 73.3945 80.9354C77.1031 78.8482 80.3805 75.5674 82.0089 70.641C82.9679 67.7431 83.1991 63.4514 83.1956 59.7842L83.1232 21.387C83.1163 18.3235 82.6057 14.4079 81.2361 11.265C79.7699 7.89794 77.1618 5.00349 73.2255 2.89906C70.6139 1.49841 66.3671 0.60144 61.1888 0.60144ZM61.1888 3.80983C65.9428 3.80983 69.9446 4.82755 71.6765 5.75902C75.047 7.5633 77.0031 9.78158 78.1933 12.5208C79.28 15.0082 79.8147 18.7064 79.8251 21.3939L79.8872 59.7911C79.8941 63.2858 79.5525 67.5775 78.8591 69.6577C77.493 73.8045 74.9056 76.3712 71.742 78.1514C68.9338 79.728 62.7309 80.1971 58.5635 80.1799L20.4423 80.0281C14.7258 80.004 10.6722 78.1859 7.93298 75.2466C5.20067 72.3107 3.75172 68.1398 3.75172 63.2237L3.84487 21.1282C3.84487 18.2683 4.52105 14.8253 5.48011 12.7209C6.67032 10.1093 8.06753 8.55687 10.1892 6.94578C12.7663 4.98279 17.1925 3.94783 21.3737 3.94783L61.1888 3.80983ZM41.6625 15.6188C34.8455 15.9258 30.6091 21.3387 30.5746 26.9689C30.6401 31.9471 36.2151 38.9779 40.524 42.5969C40.938 42.9384 41.0553 42.9729 41.6625 43.2178C41.8764 43.3041 42.3456 43.0557 42.7906 42.7521C44.0326 41.9069 46.2163 39.4851 48.476 36.7562C49.9067 34.9821 51.1022 33.0305 52.0328 30.9501C53.4438 27.8797 52.9333 25.4337 52.8436 24.4367C52.2092 22.2368 51.0352 20.2303 49.4282 18.5995C47.2975 16.6794 44.5307 15.6174 41.6625 15.6188ZM56.0554 42.9488C52.2353 43.037 48.4552 43.7478 44.864 45.0532C44.3465 45.2533 43.967 45.3982 43.5737 45.6397C43.3771 45.7639 43.1942 46.1054 43.2115 46.647C43.2701 48.1408 44.2119 51.056 45.3642 54.4783C46.689 58.3939 49.0418 62.3095 51.7258 63.9309C53.0241 64.7104 54.4677 65.217 55.9684 65.4198C57.469 65.6227 58.9953 65.5175 60.454 65.1108C63.3243 64.2725 65.9566 62.1163 67.2227 59.7773C70.6243 53.5054 67.8781 47.5371 63.3554 44.5392C61.8133 43.518 59.4466 43.004 56.8351 42.9522C56.5798 42.9522 56.3176 42.9453 56.0554 42.9488ZM26.966 43.0798C26.0987 43.0813 25.2324 43.1354 24.3717 43.242C22.3155 43.5111 21.1564 44.1838 19.9213 45.0014C17.5179 46.5725 15.827 49.024 15.2122 51.8288C14.9535 53.7331 14.9155 55.4615 15.3261 57.0277C16.8199 61.8196 19.9006 64.6934 25.1479 65.4868C27.342 65.5834 29.8742 65.2695 32.0132 63.9344C36.3911 61.2366 39.1889 52.9983 40.3343 47.575C40.5171 46.9679 40.455 46.3434 40.2894 46.1261C40.2722 45.895 40.1376 45.7363 39.634 45.4948C38.2609 44.8324 35.0801 44.0562 31.4405 43.4248C29.9614 43.1835 28.4646 43.0681 26.966 43.0798Z" fill="white"/>
</svg>
