<svg width="410" height="44" viewBox="0 0 410 44" fill="none" xmlns="http://www.w3.org/2000/svg">
<rect y="18" width="410" height="8" rx="3" fill="#FFB020"/>
<path d="M75.1035 0C78.8246 0 82.1747 0.852078 85.1543 2.55469C88.1477 4.24361 90.5101 6.70093 92.2402 9.92773C93.9841 13.1545 94.8555 17.0681 94.8555 21.668C94.8555 26.2678 93.9841 30.1814 92.2402 33.4082C90.5101 36.635 88.1476 39.0991 85.1543 40.8018C82.1747 42.4906 78.8246 43.3359 75.1035 43.3359C71.3551 43.3359 67.9913 42.4838 65.0117 40.7812C62.0321 39.0786 59.6764 36.6144 57.9463 33.3877C56.7891 31.2294 56.0199 28.7665 55.6367 26H64.7627C64.9817 27.1725 65.2975 28.2412 65.7119 29.2061C66.6044 31.252 67.8534 32.804 69.46 33.8613C71.0665 34.9186 72.9478 35.4473 75.1035 35.4473C77.2592 35.4473 79.1406 34.9186 80.7471 33.8613C82.3536 32.804 83.5958 31.252 84.4746 29.2061C85.3671 27.1601 85.8135 24.6476 85.8135 21.668C85.8135 18.6884 85.3671 16.1758 84.4746 14.1299C83.5958 12.084 82.3536 10.5319 80.7471 9.47461C79.1405 8.41732 77.2593 7.88867 75.1035 7.88867C72.9478 7.88868 71.0665 8.41733 69.46 9.47461C67.8535 10.5319 66.6044 12.084 65.7119 14.1299C65.2205 15.2739 64.8687 16.5641 64.6523 18H55.5547C55.901 14.9508 56.6959 12.2597 57.9463 9.92773C59.6764 6.70093 62.0321 4.24361 65.0117 2.55469C67.9913 0.852108 71.355 7.76085e-06 75.1035 0ZM261.365 0C265.086 1.6618e-05 268.436 0.852051 271.416 2.55469C274.409 4.24361 276.772 6.70093 278.502 9.92773C280.246 13.1545 281.117 17.0681 281.117 21.668C281.117 26.2678 280.246 30.1814 278.502 33.4082C276.772 36.635 274.409 39.0991 271.416 40.8018C268.436 42.4907 265.086 43.3359 261.365 43.3359C257.617 43.3359 254.252 42.4839 251.272 40.7812C248.293 39.0786 245.938 36.6143 244.208 33.3877C243.051 31.2294 242.282 28.7666 241.899 26H251.024C251.243 27.1724 251.558 28.2413 251.973 29.2061C252.865 31.252 254.115 32.804 255.722 33.8613C257.328 34.9186 259.21 35.4473 261.365 35.4473C263.521 35.4472 265.402 34.9186 267.009 33.8613C268.615 32.804 269.858 31.252 270.736 29.2061C271.629 27.1602 272.075 24.6475 272.075 21.668C272.075 18.6884 271.629 16.1758 270.736 14.1299C269.858 12.084 268.615 10.5319 267.009 9.47461C265.402 8.41734 263.521 7.88869 261.365 7.88867C259.209 7.88867 257.328 8.41734 255.722 9.47461C254.115 10.5319 252.865 12.084 251.973 14.1299C251.481 15.2739 251.128 16.564 250.911 18H241.815C242.162 14.9508 242.958 12.2598 244.208 9.92773C245.938 6.7011 248.293 4.2436 251.272 2.55469C254.252 0.852035 257.617 0 261.365 0ZM378.519 0C382.24 3.29085e-05 385.59 0.852068 388.569 2.55469C391.563 4.24356 393.924 6.70108 395.654 9.92773C396.915 12.2597 397.717 14.9508 398.066 18H388.969C388.749 16.564 388.389 15.274 387.89 14.1299C387.011 12.084 385.769 10.5319 384.162 9.47461C382.556 8.41735 380.674 7.88871 378.519 7.88867C376.363 7.88867 374.482 8.41737 372.875 9.47461C371.268 10.5319 370.018 12.084 369.126 14.1299C368.247 16.1757 367.809 18.6885 367.809 21.668C367.809 24.6474 368.247 27.1602 369.126 29.2061C370.018 31.252 371.268 32.804 372.875 33.8613C374.481 34.9185 376.363 35.4473 378.519 35.4473C380.674 35.4472 382.556 34.9186 384.162 33.8613C385.769 32.804 387.011 31.2519 387.89 29.2061C388.311 28.2413 388.63 27.1724 388.853 26H397.982C397.597 28.7773 396.822 31.247 395.654 33.4082C393.924 36.6348 391.563 39.0992 388.569 40.8018C385.59 42.4906 382.24 43.3359 378.519 43.3359C374.77 43.3359 371.405 42.4839 368.426 40.7812C365.446 39.0786 363.091 36.6143 361.361 33.3877C359.631 30.1609 358.767 26.2541 358.767 21.668C358.767 17.0681 359.631 13.1545 361.361 9.92773C363.091 6.70109 365.446 4.24359 368.426 2.55469C371.405 0.852035 374.77 0 378.519 0ZM27.6426 0.577148C30.8418 0.577194 33.5675 1.18814 35.8193 2.41016C38.071 3.61842 39.787 5.30051 40.9678 7.45605C42.1624 9.5981 42.7598 12.07 42.7598 14.8711C42.7598 17.6722 42.1556 20.1441 40.9473 22.2861C39.7389 24.428 37.9882 26.0965 35.6953 27.291C33.4161 28.4855 30.6563 29.083 27.416 29.083H19.9189V42.7588H11V0.577148H27.6426ZM125.645 0.577148C128.83 0.5772 131.549 1.14651 133.801 2.28613C136.066 3.41207 137.789 5.01261 138.97 7.08594C140.164 9.14556 140.762 11.5691 140.762 14.3564C140.762 17.1574 140.158 19.5676 138.949 21.5859C137.741 23.5905 135.99 25.1283 133.697 26.1992C133.572 26.2582 133.444 26.3143 133.315 26.3701L142.266 42.7588H132.42L124.431 27.8057H117.92V42.7588H109.002V0.577148H125.645ZM174.728 42.7588H165.912V26H174.728V42.7588ZM228.815 7.92969H209.805V17.9814H226.962V25.334H209.805V42.7588H200.887V0.577148H228.815V7.92969ZM304.182 35.4062H322.266V42.7588H295.264V0.577148H304.182V35.4062ZM344.63 42.7588H335.712V26H344.63V42.7588ZM19.9189 21.9355H25.9736C27.69 21.9355 29.1046 21.6402 30.2168 21.0498C31.3427 20.4456 32.1803 19.6149 32.7295 18.5576C33.2924 17.4866 33.5742 16.2579 33.5742 14.8711C33.5742 13.4706 33.2924 12.2486 32.7295 11.2051C32.1803 10.1478 31.3427 9.33061 30.2168 8.75391C29.0909 8.16347 27.6627 7.86816 25.9326 7.86816H19.9189V21.9355ZM117.92 20.6377H123.976C125.678 20.6377 127.093 20.4044 128.219 19.9375C129.345 19.4706 130.182 18.7706 130.731 17.8369C131.294 16.9033 131.576 15.7431 131.576 14.3564C131.576 12.9559 131.294 11.7747 130.731 10.8135C130.182 9.85231 129.338 9.1242 128.198 8.62988C127.072 8.12183 125.651 7.86816 123.935 7.86816H117.92V20.6377ZM187.642 7.92969H174.728V18H165.912V7.92969H152.998V0.577148H187.642V7.92969ZM344.63 18H335.712V0.577148H344.63V18Z" fill="white"/>
</svg>
