<svg width="32" height="72" viewBox="0 0 32 72" fill="none" xmlns="http://www.w3.org/2000/svg">
<path d="M6.09042 49.0708C6.02945 48.3973 5.8618 46.9889 5.58747 44.8457C5.34361 42.7026 5.22169 41.0339 5.22169 39.8399C5.22169 38.156 5.83132 36.5639 7.05059 35.0637C8.26987 33.5635 10.1597 31.6806 12.7202 29.4149C15.7074 26.7819 17.9631 24.501 19.4872 22.5721C21.0417 20.6126 21.819 18.4082 21.819 15.9589C21.819 13.3871 20.996 11.4889 19.35 10.2642C17.7345 9.03956 15.2807 8.42722 11.9886 8.42722C10.0683 8.42722 8.08698 8.61092 6.04469 8.97832C4.00241 9.31511 2.70694 9.54473 2.15826 9.6672L0.649414 2.59475C0.954232 2.47229 1.70104 2.24266 2.88983 1.90588C4.07862 1.5691 5.54174 1.24762 7.27921 0.941454C9.04715 0.604671 10.7694 0.436279 12.4459 0.436279C18.0545 0.436279 22.6573 1.5691 26.2541 3.83473C29.851 6.10036 31.6494 9.83559 31.6494 15.0404C31.6494 17.4898 31.1617 19.7554 30.1863 21.8373C29.2109 23.8886 28.0526 25.6644 26.7114 27.1646C25.3702 28.6648 23.587 30.4865 21.3618 32.6297C18.9842 34.8341 17.2163 36.6558 16.058 38.0948C14.8997 39.5337 14.3205 41.0646 14.3205 42.6872C14.3205 44.1875 14.351 45.4581 14.412 46.499C14.4729 47.54 14.5034 48.2136 14.5034 48.5197L6.09042 49.0708ZM4.94735 64.869C4.94735 62.8177 5.54174 61.2103 6.73054 60.0469C7.91933 58.8835 9.35197 58.3017 11.0285 58.3017C12.8879 58.3017 14.3662 58.8835 15.4636 60.0469C16.5914 61.2103 17.1553 62.8177 17.1553 64.869C17.1553 66.8897 16.5762 68.4971 15.4179 69.6911C14.2595 70.8546 12.7964 71.4363 11.0285 71.4363C9.16908 71.4363 7.69071 70.8699 6.59337 69.7371C5.49602 68.5736 4.94735 66.9509 4.94735 64.869Z" fill="white"/>
</svg>
