<svg width="76" height="91" viewBox="0 0 76 91" fill="none" xmlns="http://www.w3.org/2000/svg">
<path opacity="0.44" d="M28.8431 59.0436C28.7337 58.3762 28.4649 56.9836 28.0367 54.8658C27.6389 52.7458 27.3969 51.0903 27.3108 49.8994C27.1893 48.2199 27.6825 46.588 28.7904 45.0037C29.8983 43.4195 31.6474 41.4051 34.0378 38.9607C36.8273 36.1191 38.9126 33.6814 40.2936 31.6476C41.7028 29.5811 42.319 27.3264 42.1423 24.8834C41.9568 22.3183 40.999 20.4844 39.269 19.3817C37.5693 18.2767 35.0778 17.843 31.7943 18.0804C29.8789 18.219 27.916 18.5451 25.9056 19.0588C23.8929 19.5421 22.6174 19.8645 22.079 20.0263L20.0639 13.0811C20.3591 12.9369 21.0874 12.654 22.2488 12.2324C23.4102 11.8107 24.8463 11.3846 26.5572 10.9539C28.2962 10.4904 30.0018 10.1983 31.6739 10.0773C37.268 9.67277 41.9405 10.4706 45.6914 12.4709C49.4423 14.4712 51.5054 18.067 51.8809 23.2583C52.0575 25.7012 51.7345 27.9961 50.9118 30.143C50.0869 32.2593 49.0597 34.114 47.8302 35.707C46.6007 37.3001 44.9536 39.2457 42.8888 41.5438C40.6764 43.9139 39.0445 45.8584 37.993 47.3772C36.9415 48.8959 36.4743 50.4646 36.5913 52.083C36.6995 53.5793 36.8216 54.8444 36.9575 55.8783C37.0933 56.9121 37.1723 57.5817 37.1944 57.8871L28.8431 59.0436ZM28.8426 74.8831C28.6946 72.8371 29.1715 71.1911 30.2733 69.9449C31.375 68.6988 32.762 68.0152 34.4341 67.8943C36.2887 67.7602 37.8052 68.2337 38.9836 69.315C40.1924 70.394 40.8708 71.9565 41.0187 74.0025C41.1645 76.018 40.7028 77.6629 39.6336 78.9374C38.5622 80.1814 37.1449 80.8671 35.3815 80.9946C33.527 81.1287 32.0116 80.6704 30.8354 79.6197C29.657 78.5385 28.9927 76.9596 28.8426 74.8831Z" fill="white"/>
<path d="M34.3258 66.398C36.5118 66.2399 38.4515 66.7998 39.9819 68.1959L39.9829 68.1958C41.5543 69.5986 42.3465 71.5678 42.5148 73.8942C42.6822 76.2099 42.154 78.266 40.7824 79.901L40.7761 79.9093L40.7698 79.9166C39.4168 81.4874 37.6169 82.3369 35.4896 82.4907C33.3085 82.6484 31.3688 82.1082 29.8358 80.7387L29.8284 80.7314L29.8211 80.7251C28.2837 79.3144 27.5155 77.3304 27.3464 74.9912C27.1766 72.6428 27.721 70.5668 29.1497 68.9508C30.5135 67.4085 32.2661 66.547 34.3258 66.398ZM31.5662 8.58121C37.354 8.16269 42.3289 8.97744 46.3973 11.147C50.7093 13.4465 52.974 17.5782 53.377 23.1504C53.5684 25.7978 53.2191 28.3141 52.3128 30.6794L52.3095 30.6875C51.4392 32.9202 50.3455 34.9041 49.0182 36.6239C47.7573 38.2577 46.0825 40.2331 44.0045 42.5459L43.9955 42.5564L43.9855 42.5669C41.7918 44.917 40.2168 46.8 39.2263 48.2306C38.3412 49.5091 37.9982 50.7443 38.0872 51.9748C38.1941 53.4532 38.3136 54.6871 38.4444 55.6824C38.5788 56.7045 38.6641 57.4206 38.69 57.7785L38.7914 59.1801L37.4003 59.3728L29.0488 60.529L27.5996 60.7297L27.363 59.286C27.2589 58.6509 26.9958 57.2862 26.5664 55.1628L26.5648 55.1531L26.562 55.1425C26.1607 53.0035 25.9069 51.2826 25.8147 50.0073C25.6648 47.9342 26.2869 45.9669 27.5614 44.1444C28.7388 42.4606 30.5545 40.3779 32.9657 37.9121L32.9676 37.91L33.9679 36.8762C36.2205 34.5137 37.9073 32.4922 39.053 30.8051L39.0547 30.8021L39.2751 30.465C40.3395 28.7687 40.7888 26.9581 40.6465 24.9914C40.4856 22.7664 39.6927 21.4302 38.4632 20.6464L38.4509 20.6394L38.4509 20.6385C37.1497 19.7929 35.0463 19.3494 31.9021 19.5768C30.3101 19.692 28.6759 19.9441 26.9988 20.3358L26.2772 20.5123L26.2561 20.5178C24.737 20.8825 23.665 21.1492 23.0176 21.3218L22.5108 21.4632L21.0599 21.8981L20.6385 20.4443L18.6235 13.4993L18.2715 12.2871L19.4054 11.7332C19.7875 11.5466 20.6008 11.235 21.7374 10.8224C22.957 10.3796 24.4384 9.9416 26.1705 9.50504L26.1704 9.50406C27.9939 9.01814 29.7935 8.7094 31.5662 8.58121Z" stroke="#353333" stroke-width="3"/>
</svg>
