<svg width="145" height="208" viewBox="0 0 145 208" fill="none" xmlns="http://www.w3.org/2000/svg">
<path d="M35.0042 164.455H38.2286L42.5468 174.994H42.7173L47.0354 164.455H50.2599V179H47.7315V169.007H47.5965L43.5766 178.957H41.6874L37.6675 168.986H37.5326V179H35.0042V164.455ZM59.1741 179.213C58.1087 179.213 57.1854 178.979 56.4042 178.51C55.6229 178.041 55.0169 177.385 54.586 176.543C54.1599 175.7 53.9468 174.715 53.9468 173.588C53.9468 172.461 54.1599 171.474 54.586 170.626C55.0169 169.779 55.6229 169.121 56.4042 168.652C57.1854 168.183 58.1087 167.949 59.1741 167.949C60.2394 167.949 61.1627 168.183 61.944 168.652C62.7252 169.121 63.3289 169.779 63.755 170.626C64.1859 171.474 64.4013 172.461 64.4013 173.588C64.4013 174.715 64.1859 175.7 63.755 176.543C63.3289 177.385 62.7252 178.041 61.944 178.51C61.1627 178.979 60.2394 179.213 59.1741 179.213ZM59.1883 177.153C59.7659 177.153 60.2489 176.995 60.6371 176.678C61.0254 176.356 61.3142 175.925 61.5036 175.385C61.6977 174.845 61.7948 174.244 61.7948 173.581C61.7948 172.913 61.6977 172.31 61.5036 171.77C61.3142 171.225 61.0254 170.792 60.6371 170.47C60.2489 170.148 59.7659 169.987 59.1883 169.987C58.5964 169.987 58.104 170.148 57.711 170.47C57.3227 170.792 57.0316 171.225 56.8374 171.77C56.648 172.31 56.5533 172.913 56.5533 173.581C56.5533 174.244 56.648 174.845 56.8374 175.385C57.0316 175.925 57.3227 176.356 57.711 176.678C58.104 176.995 58.5964 177.153 59.1883 177.153ZM73.431 168.091V170.08H67.1597V168.091H73.431ZM68.708 165.477H71.279V175.719C71.279 176.064 71.3311 176.33 71.4352 176.514C71.5441 176.694 71.6862 176.817 71.8614 176.884C72.0366 176.95 72.2307 176.983 72.4437 176.983C72.6047 176.983 72.7515 176.971 72.8841 176.947C73.0214 176.924 73.1256 176.902 73.1966 176.884L73.6298 178.893C73.4925 178.941 73.296 178.993 73.0403 179.05C72.7894 179.107 72.4816 179.14 72.117 179.149C71.4731 179.168 70.8931 179.071 70.377 178.858C69.8609 178.64 69.4513 178.304 69.1483 177.849C68.85 177.395 68.7032 176.827 68.708 176.145V165.477ZM76.9812 179V168.091H79.5522V179H76.9812ZM78.2738 166.543C77.8666 166.543 77.5162 166.408 77.2227 166.138C76.9291 165.863 76.7823 165.534 76.7823 165.151C76.7823 164.762 76.9291 164.433 77.2227 164.163C77.5162 163.889 77.8666 163.751 78.2738 163.751C78.6857 163.751 79.0361 163.889 79.3249 164.163C79.6185 164.433 79.7653 164.762 79.7653 165.151C79.7653 165.534 79.6185 165.863 79.3249 166.138C79.0361 166.408 78.6857 166.543 78.2738 166.543ZM88.3545 179.213C87.2892 179.213 86.3659 178.979 85.5847 178.51C84.8034 178.041 84.1973 177.385 83.7665 176.543C83.3403 175.7 83.1273 174.715 83.1273 173.588C83.1273 172.461 83.3403 171.474 83.7665 170.626C84.1973 169.779 84.8034 169.121 85.5847 168.652C86.3659 168.183 87.2892 167.949 88.3545 167.949C89.4199 167.949 90.3432 168.183 91.1244 168.652C91.9057 169.121 92.5094 169.779 92.9355 170.626C93.3664 171.474 93.5818 172.461 93.5818 173.588C93.5818 174.715 93.3664 175.7 92.9355 176.543C92.5094 177.385 91.9057 178.041 91.1244 178.51C90.3432 178.979 89.4199 179.213 88.3545 179.213ZM88.3687 177.153C88.9464 177.153 89.4294 176.995 89.8176 176.678C90.2059 176.356 90.4947 175.925 90.6841 175.385C90.8782 174.845 90.9753 174.244 90.9753 173.581C90.9753 172.913 90.8782 172.31 90.6841 171.77C90.4947 171.225 90.2059 170.792 89.8176 170.47C89.4294 170.148 88.9464 169.987 88.3687 169.987C87.7769 169.987 87.2845 170.148 86.8915 170.47C86.5032 170.792 86.212 171.225 86.0179 171.77C85.8285 172.31 85.7338 172.913 85.7338 173.581C85.7338 174.244 85.8285 174.845 86.0179 175.385C86.212 175.925 86.5032 176.356 86.8915 176.678C87.2845 176.995 87.7769 177.153 88.3687 177.153ZM99.735 172.608V179H97.164V168.091H99.6214V169.945H99.7492C100 169.334 100.4 168.848 100.95 168.489C101.503 168.129 102.188 167.949 103.002 167.949C103.755 167.949 104.411 168.11 104.969 168.432C105.533 168.754 105.968 169.22 106.276 169.831C106.589 170.442 106.743 171.183 106.738 172.054V179H104.167V172.452C104.167 171.723 103.977 171.152 103.599 170.74C103.225 170.328 102.706 170.122 102.043 170.122C101.593 170.122 101.193 170.222 100.843 170.42C100.497 170.615 100.225 170.896 100.026 171.266C99.8321 171.635 99.735 172.082 99.735 172.608ZM34.3708 193.099C34.2524 192.716 34.089 192.373 33.8807 192.07C33.6771 191.762 33.4309 191.499 33.1421 191.281C32.858 191.063 32.5313 190.9 32.162 190.791C31.7926 190.678 31.3902 190.621 30.9546 190.621C30.1733 190.621 29.4773 190.817 28.8665 191.21C28.2557 191.603 27.7751 192.181 27.4248 192.943C27.0791 193.701 26.9063 194.624 26.9063 195.713C26.9063 196.812 27.0791 197.742 27.4248 198.504C27.7704 199.267 28.251 199.847 28.8665 200.244C29.482 200.637 30.197 200.834 31.0114 200.834C31.75 200.834 32.3892 200.692 32.929 200.408C33.4735 200.124 33.8926 199.721 34.1861 199.2C34.4797 198.675 34.6265 198.059 34.6265 197.354L35.223 197.446H31.2742V195.386H37.1762V197.134C37.1762 198.379 36.911 199.456 36.3807 200.365C35.8504 201.274 35.1212 201.975 34.1932 202.467C33.2652 202.955 32.1998 203.199 30.9972 203.199C29.6572 203.199 28.4806 202.898 27.4674 202.297C26.4588 201.691 25.6705 200.831 25.1023 199.719C24.5389 198.601 24.2571 197.276 24.2571 195.741C24.2571 194.567 24.4229 193.518 24.7543 192.595C25.0905 191.672 25.5592 190.888 26.1605 190.244C26.7619 189.596 27.4674 189.103 28.277 188.767C29.0867 188.426 29.9674 188.256 30.9191 188.256C31.724 188.256 32.4745 188.374 33.1705 188.611C33.8665 188.843 34.4844 189.174 35.0242 189.605C35.5687 190.036 36.0161 190.547 36.3665 191.139C36.7169 191.731 36.9465 192.384 37.0554 193.099H34.3708ZM41.0105 203V192.091H43.5034V193.909H43.617C43.8159 193.279 44.1568 192.794 44.6397 192.453C45.1274 192.107 45.6838 191.935 46.3088 191.935C46.4508 191.935 46.6094 191.942 46.7846 191.956C46.9645 191.965 47.1137 191.982 47.2321 192.006V194.371C47.1232 194.333 46.9503 194.3 46.7136 194.271C46.4816 194.238 46.2567 194.222 46.0389 194.222C45.5701 194.222 45.1487 194.323 44.7747 194.527C44.4054 194.726 44.1142 195.003 43.9011 195.358C43.688 195.713 43.5815 196.123 43.5815 196.587V203H41.0105ZM53.2841 203.22C52.5928 203.22 51.9701 203.097 51.4162 202.851C50.8669 202.6 50.4313 202.231 50.1093 201.743C49.7921 201.255 49.6335 200.654 49.6335 199.939C49.6335 199.323 49.7471 198.814 49.9744 198.412C50.2017 198.009 50.5118 197.688 50.9048 197.446C51.2978 197.205 51.7405 197.022 52.2329 196.899C52.7301 196.771 53.2438 196.679 53.7741 196.622C54.4133 196.556 54.9318 196.497 55.3295 196.445C55.7272 196.388 56.0161 196.303 56.196 196.189C56.3806 196.071 56.473 195.888 56.473 195.642V195.599C56.473 195.064 56.3144 194.65 55.9971 194.357C55.6799 194.063 55.223 193.916 54.6264 193.916C53.9966 193.916 53.4971 194.054 53.1278 194.328C52.7632 194.603 52.517 194.927 52.3892 195.301L49.9886 194.96C50.178 194.297 50.4905 193.743 50.9261 193.298C51.3617 192.848 51.8944 192.512 52.5241 192.29C53.1538 192.062 53.8499 191.949 54.6122 191.949C55.1377 191.949 55.6609 192.01 56.1818 192.134C56.7026 192.257 57.1785 192.46 57.6093 192.744C58.0402 193.024 58.3859 193.405 58.6463 193.888C58.9114 194.371 59.044 194.974 59.044 195.699V203H56.5724V201.501H56.4872C56.3309 201.804 56.1108 202.089 55.8267 202.354C55.5473 202.614 55.1946 202.825 54.7684 202.986C54.347 203.142 53.8522 203.22 53.2841 203.22ZM53.9517 201.331C54.4678 201.331 54.9152 201.229 55.294 201.026C55.6728 200.817 55.964 200.543 56.1676 200.202C56.3759 199.861 56.4801 199.489 56.4801 199.087V197.801C56.3996 197.867 56.2623 197.929 56.0681 197.986C55.8788 198.043 55.6657 198.092 55.4289 198.135C55.1922 198.178 54.9578 198.215 54.7258 198.249C54.4938 198.282 54.2926 198.31 54.1221 198.334C53.7386 198.386 53.3953 198.471 53.0923 198.589C52.7893 198.708 52.5502 198.874 52.375 199.087C52.1998 199.295 52.1122 199.565 52.1122 199.896C52.1122 200.37 52.285 200.727 52.6306 200.969C52.9763 201.21 53.4166 201.331 53.9517 201.331ZM63.0292 207.091V192.091H65.5576V193.895H65.7068C65.8394 193.63 66.0264 193.348 66.2679 193.05C66.5093 192.747 66.836 192.489 67.248 192.276C67.6599 192.058 68.1855 191.949 68.8247 191.949C69.6675 191.949 70.4274 192.164 71.1045 192.595C71.7863 193.021 72.3261 193.653 72.7238 194.491C73.1263 195.325 73.3275 196.348 73.3275 197.56C73.3275 198.758 73.131 199.776 72.738 200.614C72.345 201.452 71.81 202.091 71.1329 202.531C70.4558 202.972 69.6888 203.192 68.8318 203.192C68.2068 203.192 67.6883 203.088 67.2764 202.879C66.8645 202.671 66.533 202.42 66.2821 202.126C66.0359 201.828 65.8441 201.546 65.7068 201.281H65.6002V207.091H63.0292ZM65.5505 197.545C65.5505 198.251 65.65 198.869 65.8488 199.399C66.0524 199.929 66.3436 200.344 66.7224 200.642C67.1059 200.936 67.5699 201.082 68.1145 201.082C68.6826 201.082 69.1585 200.931 69.542 200.628C69.9255 200.32 70.2144 199.901 70.4085 199.371C70.6074 198.836 70.7068 198.227 70.7068 197.545C70.7068 196.868 70.6097 196.267 70.4156 195.741C70.2215 195.216 69.9326 194.804 69.5491 194.506C69.1656 194.207 68.6874 194.058 68.1145 194.058C67.5652 194.058 67.0988 194.203 66.7153 194.491C66.3318 194.78 66.0406 195.185 65.8417 195.706C65.6476 196.227 65.5505 196.84 65.5505 197.545ZM79.5002 196.608V203H76.9292V188.455H79.4434V193.945H79.5713C79.827 193.329 80.2223 192.844 80.7573 192.489C81.2971 192.129 81.9837 191.949 82.817 191.949C83.5746 191.949 84.2351 192.107 84.7985 192.425C85.362 192.742 85.7976 193.206 86.1054 193.817C86.4179 194.428 86.5741 195.173 86.5741 196.054V203H84.0031V196.452C84.0031 195.718 83.8137 195.147 83.4349 194.74C83.0609 194.328 82.5353 194.122 81.8582 194.122C81.4037 194.122 80.9965 194.222 80.6366 194.42C80.2815 194.615 80.0021 194.896 79.7985 195.266C79.5997 195.635 79.5002 196.082 79.5002 196.608ZM90.5948 203V192.091H93.1659V203H90.5948ZM91.8875 190.543C91.4803 190.543 91.1299 190.408 90.8363 190.138C90.5428 189.863 90.396 189.534 90.396 189.151C90.396 188.762 90.5428 188.433 90.8363 188.163C91.1299 187.889 91.4803 187.751 91.8875 187.751C92.2994 187.751 92.6498 187.889 92.9386 188.163C93.2322 188.433 93.3789 188.762 93.3789 189.151C93.3789 189.534 93.2322 189.863 92.9386 190.138C92.6498 190.408 92.2994 190.543 91.8875 190.543ZM101.968 203.213C100.879 203.213 99.9441 202.974 99.1628 202.496C98.3863 202.018 97.7873 201.357 97.3659 200.514C96.9493 199.667 96.7409 198.691 96.7409 197.588C96.7409 196.48 96.954 195.502 97.3801 194.655C97.8063 193.803 98.4076 193.14 99.1841 192.666C99.9654 192.188 100.889 191.949 101.954 191.949C102.839 191.949 103.623 192.112 104.305 192.439C104.991 192.761 105.538 193.218 105.945 193.81C106.353 194.397 106.585 195.083 106.642 195.869H104.184C104.085 195.344 103.848 194.906 103.474 194.555C103.105 194.2 102.61 194.023 101.99 194.023C101.464 194.023 101.002 194.165 100.605 194.449C100.207 194.728 99.8967 195.131 99.6742 195.656C99.4564 196.182 99.3475 196.812 99.3475 197.545C99.3475 198.289 99.4564 198.928 99.6742 199.463C99.892 199.993 100.197 200.403 100.59 200.692C100.988 200.976 101.454 201.118 101.99 201.118C102.368 201.118 102.707 201.047 103.005 200.905C103.308 200.758 103.561 200.547 103.765 200.273C103.969 199.998 104.108 199.664 104.184 199.271H106.642C106.58 200.043 106.353 200.727 105.96 201.324C105.567 201.916 105.032 202.38 104.355 202.716C103.677 203.047 102.882 203.213 101.968 203.213ZM118.775 194.974L116.431 195.23C116.365 194.993 116.249 194.771 116.083 194.562C115.922 194.354 115.704 194.186 115.43 194.058C115.155 193.93 114.819 193.866 114.421 193.866C113.886 193.866 113.436 193.982 113.072 194.214C112.712 194.446 112.534 194.747 112.539 195.116C112.534 195.434 112.65 195.692 112.887 195.891C113.129 196.089 113.526 196.253 114.08 196.381L115.941 196.778C116.973 197.001 117.74 197.354 118.242 197.837C118.749 198.32 119.004 198.952 119.009 199.733C119.004 200.42 118.803 201.026 118.406 201.551C118.013 202.072 117.466 202.479 116.765 202.773C116.064 203.066 115.259 203.213 114.35 203.213C113.015 203.213 111.94 202.934 111.126 202.375C110.311 201.812 109.826 201.028 109.67 200.024L112.177 199.783C112.29 200.275 112.532 200.647 112.901 200.898C113.271 201.149 113.751 201.274 114.343 201.274C114.954 201.274 115.444 201.149 115.813 200.898C116.187 200.647 116.374 200.337 116.374 199.967C116.374 199.655 116.254 199.397 116.012 199.193C115.775 198.99 115.406 198.833 114.904 198.724L113.043 198.334C111.997 198.116 111.223 197.749 110.721 197.233C110.219 196.712 109.97 196.054 109.975 195.259C109.97 194.586 110.153 194.004 110.522 193.511C110.896 193.014 111.415 192.631 112.077 192.361C112.745 192.086 113.514 191.949 114.386 191.949C115.664 191.949 116.67 192.221 117.404 192.766C118.143 193.31 118.6 194.046 118.775 194.974Z" fill="white"/>
<path d="M54.9389 83.2287C53.5885 83.2287 52.3825 83.0191 51.3207 82.5998C50.2643 82.1805 49.4312 81.6115 48.8214 80.8928C48.217 80.174 47.9148 79.3627 47.9148 78.4588C47.9148 77.7673 48.0863 77.1357 48.4293 76.5639C48.7778 75.9922 49.2461 75.5185 49.8342 75.1428C50.4222 74.7616 51.0784 74.5166 51.8026 74.4077V74.277C50.8497 74.1136 50.0656 73.6916 49.4503 73.011C48.8404 72.3249 48.5355 71.5163 48.5355 70.5852C48.5355 69.7086 48.8132 68.9299 49.3686 68.2493C49.924 67.5632 50.6836 67.0241 51.6474 66.6321C52.6112 66.2401 53.7083 66.044 54.9389 66.044C56.1695 66.044 57.2667 66.2428 58.2305 66.6403C59.1942 67.0323 59.9538 67.5714 60.5092 68.2575C61.0646 68.9381 61.3423 69.714 61.3423 70.5852C61.3423 71.5218 61.032 72.3304 60.4112 73.011C59.7905 73.6916 59.0118 74.1136 58.0753 74.277V74.4077C58.794 74.5166 59.4474 74.7616 60.0355 75.1428C60.6236 75.5185 61.0919 75.9922 61.4403 76.5639C61.7888 77.1357 61.9631 77.7673 61.9631 78.4588C61.9631 79.3627 61.6581 80.174 61.0483 80.8928C60.4439 81.6115 59.6108 82.1805 58.549 82.5998C57.4927 83.0191 56.2893 83.2287 54.9389 83.2287ZM54.9389 80.0923C55.3691 80.0923 55.7502 80.0052 56.0824 79.831C56.4145 79.6567 56.6759 79.4171 56.8665 79.1122C57.0625 78.8018 57.1605 78.4534 57.1605 78.0668C57.1605 77.6802 57.0625 77.3371 56.8665 77.0376C56.6759 76.7382 56.4145 76.504 56.0824 76.3352C55.7502 76.161 55.3691 76.0739 54.9389 76.0739C54.5142 76.0739 54.133 76.161 53.7955 76.3352C53.4633 76.504 53.1992 76.7382 53.0032 77.0376C52.8126 77.3371 52.7173 77.6802 52.7173 78.0668C52.7173 78.4534 52.8126 78.7991 53.0032 79.104C53.1992 79.409 53.4633 79.6513 53.7955 79.831C54.133 80.0052 54.5142 80.0923 54.9389 80.0923ZM54.9389 72.9375C55.3201 72.9375 55.6577 72.8585 55.9517 72.7006C56.2457 72.5427 56.4772 72.3249 56.646 72.0472C56.8147 71.7695 56.8991 71.4564 56.8991 71.108C56.8991 70.7595 56.8147 70.4518 56.646 70.185C56.4772 69.9128 56.2457 69.7004 55.9517 69.5479C55.6577 69.39 55.3201 69.3111 54.9389 69.3111C54.5632 69.3111 54.2256 69.39 53.9261 69.5479C53.6321 69.7004 53.4007 69.9128 53.2319 70.185C53.0631 70.4518 52.9787 70.7595 52.9787 71.108C52.9787 71.4564 53.0631 71.7695 53.2319 72.0472C53.4007 72.3195 53.6321 72.5373 53.9261 72.7006C54.2256 72.8585 54.5632 72.9375 54.9389 72.9375ZM72.8862 83.4574C71.367 83.4519 70.0548 83.1007 68.9494 82.4038C67.8441 81.7068 66.9919 80.7022 66.3929 79.3899C65.794 78.0777 65.4972 76.504 65.5027 74.669C65.5081 72.8286 65.8076 71.2659 66.4011 69.9808C67.0001 68.6958 67.8495 67.7184 68.9494 67.0487C70.0548 66.3789 71.367 66.044 72.8862 66.044C74.4054 66.044 75.7176 66.3816 76.823 67.0568C77.9283 67.7266 78.7805 68.704 79.3794 69.989C79.9784 71.274 80.2752 72.834 80.2697 74.669C80.2697 76.5149 79.9702 78.094 79.3713 79.4062C78.7723 80.7185 77.9202 81.7231 76.8148 82.4201C75.7149 83.1116 74.4054 83.4574 72.8862 83.4574ZM72.8862 79.7656C73.6703 79.7656 74.3128 79.3572 74.8137 78.5405C75.3201 77.7183 75.5706 76.4278 75.5652 74.669C75.5652 73.5201 75.4508 72.5808 75.2221 71.8512C74.9934 71.1216 74.6776 70.5825 74.2747 70.234C73.8717 69.8801 73.4089 69.7031 72.8862 69.7031C72.1021 69.7031 71.4623 70.1006 70.9668 70.8956C70.4713 71.6906 70.2181 72.9484 70.2072 74.669C70.2018 75.8397 70.3134 76.8035 70.5421 77.5604C70.7708 78.3118 71.0866 78.8672 71.4895 79.2266C71.8979 79.5859 72.3635 79.7656 72.8862 79.7656ZM93.5839 79.8636V78.9815C93.5839 78.2737 93.7364 77.6203 94.0413 77.0213C94.3517 76.4223 94.8009 75.9405 95.3889 75.5756C95.977 75.2108 96.693 75.0284 97.537 75.0284C98.4028 75.0284 99.1297 75.2081 99.7178 75.5675C100.311 75.9268 100.761 76.406 101.065 77.005C101.37 77.6039 101.523 78.2628 101.523 78.9815V79.8636C101.523 80.5715 101.368 81.2249 101.057 81.8239C100.752 82.4228 100.303 82.9047 99.7096 83.2695C99.1161 83.6344 98.3919 83.8168 97.537 83.8168C96.6822 83.8168 95.9607 83.6344 95.3726 83.2695C94.7845 82.9047 94.338 82.4228 94.0331 81.8239C93.7336 81.2249 93.5839 80.5715 93.5839 79.8636ZM96.4262 78.9815V79.8636C96.4262 80.174 96.5025 80.4817 96.6549 80.7866C96.8128 81.0861 97.1069 81.2358 97.537 81.2358C97.989 81.2358 98.2857 81.0888 98.4273 80.7947C98.5743 80.5007 98.6478 80.1903 98.6478 79.8636V78.9815C98.6478 78.6548 98.5798 78.339 98.4436 78.0341C98.3075 77.7292 98.0053 77.5767 97.537 77.5767C97.1069 77.5767 96.8128 77.7292 96.6549 78.0341C96.5025 78.339 96.4262 78.6548 96.4262 78.9815ZM84.8282 70.2912V69.4091C84.8282 68.6903 84.9834 68.0315 85.2938 67.4325C85.6096 66.8336 86.0615 66.3544 86.6496 65.995C87.2377 65.6357 87.9483 65.456 88.7813 65.456C89.6471 65.456 90.374 65.6357 90.9621 65.995C91.5556 66.3544 92.0048 66.8336 92.3098 67.4325C92.6147 68.0315 92.7671 68.6903 92.7671 69.4091V70.2912C92.7671 71.0099 92.612 71.6661 92.3016 72.2596C91.9967 72.8531 91.5474 73.3268 90.9539 73.6808C90.3604 74.0347 89.6362 74.2116 88.7813 74.2116C87.9265 74.2116 87.205 74.032 86.6169 73.6726C86.0289 73.3132 85.5824 72.8368 85.2774 72.2433C84.978 71.6497 84.8282 70.9991 84.8282 70.2912ZM87.7032 69.4091V70.2912C87.7032 70.6179 87.7795 70.9283 87.9319 71.2223C88.0844 71.5163 88.3675 71.6634 88.7813 71.6634C89.2333 71.6634 89.53 71.5163 89.6716 71.2223C89.8186 70.9283 89.8921 70.6179 89.8921 70.2912V69.4091C89.8921 69.0824 89.8241 68.7666 89.688 68.4616C89.5518 68.1567 89.2496 68.0043 88.7813 68.0043C88.3512 68.0043 88.0626 68.1622 87.9156 68.478C87.774 68.7884 87.7032 69.0987 87.7032 69.4091ZM86.2167 83L97.7167 66.2727H100.036L88.5363 83H86.2167Z" fill="white"/>
<path d="M145 72.5C145 112.541 112.541 145 72.5 145C32.4594 145 0 112.541 0 72.5C0 32.4594 32.4594 0 72.5 0C112.541 0 145 32.4594 145 72.5ZM17.4727 72.5C17.4727 102.891 42.1093 127.527 72.5 127.527C102.891 127.527 127.527 102.891 127.527 72.5C127.527 42.1093 102.891 17.4727 72.5 17.4727C42.1093 17.4727 17.4727 42.1093 17.4727 72.5Z" fill="#D9D9D9"/>
<path d="M11.9455 52.5261C7.3634 51.0147 2.3676 53.5003 1.41797 58.2309C-1.00103 70.2811 -0.32568 82.7997 3.44932 94.5965C8.11564 109.179 17.2786 121.909 29.6248 130.963C41.9711 140.018 56.8668 144.931 72.1772 144.999C87.4875 145.067 102.426 140.287 114.853 131.343C127.279 122.399 136.555 109.75 141.351 95.2105C146.147 80.6706 146.217 64.9856 141.551 50.4035C136.884 35.8214 127.721 23.091 115.375 14.0366C105.387 6.71172 93.7306 2.09697 81.5358 0.565203C76.7485 -0.0361299 72.8054 3.91209 72.7839 8.737C72.7624 13.5619 76.6809 17.42 81.4417 18.204C89.9392 19.6035 98.0321 22.9855 105.042 28.1265C114.413 34.9987 121.368 44.6611 124.909 55.7288C128.451 66.7966 128.398 78.7015 124.758 89.7372C121.118 100.773 114.077 110.373 104.646 117.162C95.2141 123.95 83.8755 127.578 72.255 127.527C60.6345 127.475 49.3286 123.746 39.9579 116.874C30.5871 110.001 23.6325 100.339 20.0908 89.2712C17.4413 80.9917 16.8035 72.2437 18.1742 63.7416C18.9421 58.9781 16.5276 54.0375 11.9455 52.5261Z" fill="#8F00FF"/>
</svg>
