<svg width="145" height="208" viewBox="0 0 145 208" fill="none" xmlns="http://www.w3.org/2000/svg">
<path d="M49.2264 164.455L53.0119 175.903H53.161L56.9395 164.455H59.8372L54.7093 179H51.4565L46.3358 164.455H49.2264ZM63.0394 179V168.091H65.6104V179H63.0394ZM64.332 166.543C63.9248 166.543 63.5744 166.408 63.2809 166.138C62.9873 165.863 62.8405 165.534 62.8405 165.151C62.8405 164.762 62.9873 164.433 63.2809 164.163C63.5744 163.889 63.9248 163.751 64.332 163.751C64.7439 163.751 65.0943 163.889 65.3831 164.163C65.6767 164.433 65.8235 164.762 65.8235 165.151C65.8235 165.534 65.6767 165.863 65.3831 166.138C65.0943 166.408 64.7439 166.543 64.332 166.543ZM73.7025 179.192C72.8455 179.192 72.0785 178.972 71.4014 178.531C70.7243 178.091 70.1893 177.452 69.7963 176.614C69.4033 175.776 69.2068 174.758 69.2068 173.56C69.2068 172.348 69.4056 171.325 69.8034 170.491C70.2058 169.653 70.748 169.021 71.4298 168.595C72.1116 168.164 72.8716 167.949 73.7096 167.949C74.3488 167.949 74.8744 168.058 75.2863 168.276C75.6983 168.489 76.025 168.747 76.2664 169.05C76.5079 169.348 76.6949 169.63 76.8275 169.895H76.9341V164.455H79.5122V179H76.9838V177.281H76.8275C76.6949 177.546 76.5032 177.828 76.2522 178.126C76.0013 178.42 75.6699 178.671 75.2579 178.879C74.846 179.088 74.3275 179.192 73.7025 179.192ZM74.4199 177.082C74.9644 177.082 75.4284 176.936 75.8119 176.642C76.1954 176.344 76.4866 175.929 76.6855 175.399C76.8843 174.869 76.9838 174.251 76.9838 173.545C76.9838 172.84 76.8843 172.227 76.6855 171.706C76.4913 171.185 76.2025 170.78 75.819 170.491C75.4402 170.203 74.9738 170.058 74.4199 170.058C73.8469 170.058 73.3687 170.207 72.9852 170.506C72.6017 170.804 72.3128 171.216 72.1187 171.741C71.9246 172.267 71.8275 172.868 71.8275 173.545C71.8275 174.227 71.9246 174.836 72.1187 175.371C72.3176 175.901 72.6088 176.32 72.9923 176.628C73.3806 176.931 73.8564 177.082 74.4199 177.082ZM88.4814 179.213C87.3877 179.213 86.4431 178.986 85.6476 178.531C84.8569 178.072 84.2485 177.423 83.8223 176.585C83.3962 175.742 83.1831 174.75 83.1831 173.609C83.1831 172.487 83.3962 171.502 83.8223 170.655C84.2532 169.803 84.8545 169.14 85.6263 168.666C86.3981 168.188 87.3048 167.949 88.3465 167.949C89.0188 167.949 89.6533 168.058 90.2499 168.276C90.8512 168.489 91.3815 168.82 91.8408 169.27C92.3048 169.72 92.6694 170.293 92.9346 170.989C93.1997 171.68 93.3323 172.504 93.3323 173.46V174.249H84.3905V172.516H90.8678C90.8631 172.023 90.7565 171.585 90.5482 171.202C90.3399 170.813 90.0487 170.508 89.6746 170.286C89.3053 170.063 88.8744 169.952 88.382 169.952C87.8564 169.952 87.3948 170.08 86.9971 170.335C86.5993 170.586 86.2892 170.918 86.0667 171.33C85.8489 171.737 85.7376 172.184 85.7328 172.672V174.185C85.7328 174.819 85.8489 175.364 86.0809 175.818C86.3129 176.268 86.6372 176.614 87.0539 176.855C87.4705 177.092 87.9582 177.21 88.5169 177.21C88.891 177.21 89.2295 177.158 89.5326 177.054C89.8356 176.945 90.0984 176.786 90.3209 176.578C90.5435 176.37 90.7115 176.112 90.8252 175.804L93.2257 176.074C93.0742 176.708 92.7854 177.262 92.3593 177.736C91.9379 178.205 91.3981 178.569 90.74 178.83C90.0818 179.085 89.329 179.213 88.4814 179.213ZM101.666 179.213C100.601 179.213 99.6772 178.979 98.896 178.51C98.1147 178.041 97.5087 177.385 97.0778 176.543C96.6517 175.7 96.4386 174.715 96.4386 173.588C96.4386 172.461 96.6517 171.474 97.0778 170.626C97.5087 169.779 98.1147 169.121 98.896 168.652C99.6772 168.183 100.601 167.949 101.666 167.949C102.731 167.949 103.655 168.183 104.436 168.652C105.217 169.121 105.821 169.779 106.247 170.626C106.678 171.474 106.893 172.461 106.893 173.588C106.893 174.715 106.678 175.7 106.247 176.543C105.821 177.385 105.217 178.041 104.436 178.51C103.655 178.979 102.731 179.213 101.666 179.213ZM101.68 177.153C102.258 177.153 102.741 176.995 103.129 176.678C103.517 176.356 103.806 175.925 103.995 175.385C104.19 174.845 104.287 174.244 104.287 173.581C104.287 172.913 104.19 172.31 103.995 171.77C103.806 171.225 103.517 170.792 103.129 170.47C102.741 170.148 102.258 169.987 101.68 169.987C101.088 169.987 100.596 170.148 100.203 170.47C99.8145 170.792 99.5234 171.225 99.3292 171.77C99.1398 172.31 99.0451 172.913 99.0451 173.581C99.0451 174.244 99.1398 174.845 99.3292 175.385C99.5234 175.925 99.8145 176.356 100.203 176.678C100.596 176.995 101.088 177.153 101.68 177.153ZM41.0042 203V188.455H50.4644V190.663H43.6391V194.612H49.9744V196.821H43.6391V200.791H50.5212V203H41.0042ZM58.4873 203.192C57.6303 203.192 56.8632 202.972 56.1861 202.531C55.5091 202.091 54.974 201.452 54.581 200.614C54.188 199.776 53.9915 198.758 53.9915 197.56C53.9915 196.348 54.1904 195.325 54.5881 194.491C54.9906 193.653 55.5327 193.021 56.2146 192.595C56.8964 192.164 57.6563 191.949 58.4944 191.949C59.1336 191.949 59.6592 192.058 60.0711 192.276C60.483 192.489 60.8097 192.747 61.0512 193.05C61.2927 193.348 61.4797 193.63 61.6123 193.895H61.7188V188.455H64.2969V203H61.7685V201.281H61.6123C61.4797 201.546 61.2879 201.828 61.037 202.126C60.7861 202.42 60.4546 202.671 60.0427 202.879C59.6308 203.088 59.1123 203.192 58.4873 203.192ZM59.2046 201.082C59.7491 201.082 60.2131 200.936 60.5967 200.642C60.9802 200.344 61.2714 199.929 61.4702 199.399C61.6691 198.869 61.7685 198.251 61.7685 197.545C61.7685 196.84 61.6691 196.227 61.4702 195.706C61.2761 195.185 60.9873 194.78 60.6038 194.491C60.225 194.203 59.7586 194.058 59.2046 194.058C58.6317 194.058 58.1535 194.207 57.77 194.506C57.3864 194.804 57.0976 195.216 56.9035 195.741C56.7094 196.267 56.6123 196.868 56.6123 197.545C56.6123 198.227 56.7094 198.836 56.9035 199.371C57.1023 199.901 57.3935 200.32 57.7771 200.628C58.1653 200.931 58.6412 201.082 59.2046 201.082ZM68.4366 203V192.091H71.0077V203H68.4366ZM69.7293 190.543C69.3221 190.543 68.9717 190.408 68.6781 190.138C68.3846 189.863 68.2378 189.534 68.2378 189.151C68.2378 188.762 68.3846 188.433 68.6781 188.163C68.9717 187.889 69.3221 187.751 69.7293 187.751C70.1412 187.751 70.4916 187.889 70.7804 188.163C71.074 188.433 71.2207 188.762 71.2207 189.151C71.2207 189.534 71.074 189.863 70.7804 190.138C70.4916 190.408 70.1412 190.543 69.7293 190.543ZM80.4989 192.091V194.08H74.2276V192.091H80.4989ZM75.7759 189.477H78.3469V199.719C78.3469 200.064 78.399 200.33 78.5032 200.514C78.6121 200.694 78.7541 200.817 78.9293 200.884C79.1045 200.95 79.2987 200.983 79.5117 200.983C79.6727 200.983 79.8195 200.971 79.9521 200.947C80.0894 200.924 80.1935 200.902 80.2646 200.884L80.6978 202.893C80.5605 202.941 80.364 202.993 80.1083 203.05C79.8574 203.107 79.5496 203.14 79.185 203.149C78.5411 203.168 77.9611 203.071 77.445 202.858C76.9289 202.64 76.5193 202.304 76.2163 201.849C75.918 201.395 75.7712 200.827 75.7759 200.145V189.477ZM84.0491 203V192.091H86.6202V203H84.0491ZM85.3418 190.543C84.9346 190.543 84.5842 190.408 84.2906 190.138C83.9971 189.863 83.8503 189.534 83.8503 189.151C83.8503 188.762 83.9971 188.433 84.2906 188.163C84.5842 187.889 84.9346 187.751 85.3418 187.751C85.7537 187.751 86.1041 187.889 86.3929 188.163C86.6865 188.433 86.8332 188.762 86.8332 189.151C86.8332 189.534 86.6865 189.863 86.3929 190.138C86.1041 190.408 85.7537 190.543 85.3418 190.543ZM93.235 196.608V203H90.664V192.091H93.1214V193.945H93.2492C93.5002 193.334 93.9003 192.848 94.4495 192.489C95.0035 192.129 95.6877 191.949 96.5021 191.949C97.2549 191.949 97.9107 192.11 98.4694 192.432C99.0328 192.754 99.4684 193.22 99.7762 193.831C100.089 194.442 100.243 195.183 100.238 196.054V203H97.6668V196.452C97.6668 195.723 97.4774 195.152 97.0986 194.74C96.7246 194.328 96.2061 194.122 95.5433 194.122C95.0934 194.122 94.6933 194.222 94.343 194.42C93.9973 194.615 93.7251 194.896 93.5262 195.266C93.3321 195.635 93.235 196.082 93.235 196.608ZM108.996 207.318C108.073 207.318 107.279 207.193 106.617 206.942C105.954 206.696 105.421 206.364 105.019 205.947C104.616 205.531 104.337 205.069 104.18 204.562L106.496 204.001C106.6 204.214 106.751 204.425 106.95 204.634C107.149 204.847 107.417 205.022 107.753 205.159C108.094 205.301 108.522 205.372 109.038 205.372C109.768 205.372 110.371 205.195 110.85 204.839C111.328 204.489 111.567 203.911 111.567 203.107V201.04H111.439C111.306 201.305 111.112 201.577 110.857 201.857C110.606 202.136 110.272 202.37 109.855 202.56C109.443 202.749 108.925 202.844 108.3 202.844C107.462 202.844 106.702 202.647 106.02 202.254C105.343 201.857 104.803 201.265 104.401 200.479C104.003 199.688 103.804 198.698 103.804 197.51C103.804 196.312 104.003 195.301 104.401 194.477C104.803 193.649 105.345 193.021 106.027 192.595C106.709 192.164 107.469 191.949 108.307 191.949C108.946 191.949 109.472 192.058 109.884 192.276C110.3 192.489 110.632 192.747 110.878 193.05C111.124 193.348 111.311 193.63 111.439 193.895H111.581V192.091H114.117V203.178C114.117 204.11 113.894 204.882 113.449 205.493C113.004 206.104 112.395 206.561 111.624 206.864C110.852 207.167 109.976 207.318 108.996 207.318ZM109.017 200.827C109.562 200.827 110.026 200.694 110.409 200.429C110.793 200.164 111.084 199.783 111.283 199.286C111.482 198.788 111.581 198.192 111.581 197.496C111.581 196.809 111.482 196.208 111.283 195.692C111.089 195.176 110.8 194.776 110.416 194.491C110.037 194.203 109.571 194.058 109.017 194.058C108.444 194.058 107.966 194.207 107.582 194.506C107.199 194.804 106.91 195.214 106.716 195.734C106.522 196.25 106.425 196.838 106.425 197.496C106.425 198.163 106.522 198.748 106.716 199.25C106.915 199.747 107.206 200.135 107.59 200.415C107.978 200.689 108.454 200.827 109.017 200.827Z" fill="white"/>
<path d="M54.6449 66.044C55.6196 66.044 56.5425 66.1992 57.4137 66.5096C58.2849 66.8145 59.0554 67.2964 59.7251 67.9553C60.4003 68.6141 60.9285 69.4744 61.3097 70.5362C61.6963 71.5926 61.8923 72.8722 61.8977 74.375C61.9032 75.7472 61.7317 76.9805 61.3832 78.0749C61.0401 79.1639 60.5473 80.0923 59.9048 80.8601C59.2678 81.6278 58.5 82.2159 57.6016 82.6243C56.7086 83.0272 55.7121 83.2287 54.6122 83.2287C53.3762 83.2287 52.2899 82.9918 51.3533 82.5181C50.4168 82.0444 49.6708 81.4073 49.1154 80.6069C48.56 79.8065 48.236 78.9162 48.1435 77.9361H52.6193C52.7282 78.4425 52.9678 78.81 53.3381 79.0387C53.7083 79.262 54.133 79.3736 54.6122 79.3736C55.5705 79.3736 56.2702 78.9598 56.7113 78.1321C57.1578 77.299 57.3838 76.1882 57.3892 74.7997H57.2912C57.0788 75.3116 56.7576 75.7499 56.3274 76.1147C55.8973 76.4795 55.3963 76.7599 54.8246 76.956C54.2528 77.152 53.6484 77.25 53.0114 77.25C52.004 77.25 51.1219 77.024 50.3651 76.5721C49.6082 76.1147 49.0174 75.4912 48.5927 74.7017C48.168 73.9067 47.9529 73.0028 47.9474 71.9901C47.942 70.803 48.2224 69.763 48.7887 68.87C49.355 67.977 50.1418 67.2828 51.1491 66.7873C52.1565 66.2918 53.3217 66.044 54.6449 66.044ZM54.6776 69.4744C54.2256 69.4744 53.8227 69.5779 53.4688 69.7848C53.1203 69.9917 52.8453 70.2721 52.6438 70.6261C52.4478 70.98 52.3525 71.3802 52.358 71.8267C52.3634 72.2732 52.4641 72.6734 52.6602 73.0273C52.8616 73.3813 53.1339 73.6617 53.4769 73.8686C53.8254 74.0755 54.2256 74.179 54.6776 74.179C55.0097 74.179 55.3174 74.1218 55.6005 74.0075C55.8836 73.8877 56.1287 73.7216 56.3356 73.5092C56.5479 73.2914 56.7113 73.041 56.8256 72.7578C56.9454 72.4692 57.0026 72.1589 56.9972 71.8267C56.9917 71.3802 56.8883 70.98 56.6868 70.6261C56.4853 70.2721 56.2103 69.9917 55.8619 69.7848C55.5134 69.5779 55.1186 69.4744 54.6776 69.4744ZM72.4574 83.2287C71.4827 83.2287 70.5571 83.0762 69.6804 82.7713C68.8092 82.4609 68.036 81.9736 67.3608 81.3093C66.6856 80.645 66.1547 79.7792 65.7681 78.712C65.387 77.6448 65.1991 76.3516 65.2045 74.8324C65.21 73.4766 65.3842 72.2569 65.7273 71.1733C66.0758 70.0897 66.5685 69.1668 67.2056 68.4045C67.8481 67.6422 68.6159 67.0595 69.5089 66.6566C70.4019 66.2482 71.3956 66.044 72.4901 66.044C73.7206 66.044 74.8042 66.2809 75.7408 66.7546C76.6773 67.2283 77.4233 67.8627 77.9787 68.6577C78.5395 69.4472 78.8662 70.3184 78.9588 71.2713H74.483C74.3795 70.7976 74.1399 70.4518 73.7642 70.234C73.3939 70.0108 72.9692 69.8991 72.4901 69.8991C71.5372 69.8991 70.8375 70.313 70.391 71.1406C69.9499 71.9683 69.724 73.0573 69.7131 74.4077H69.8111C70.0234 73.8958 70.3447 73.4575 70.7749 73.0927C71.205 72.7279 71.706 72.4474 72.2777 72.2514C72.8494 72.0554 73.4538 71.9574 74.0909 71.9574C75.1037 71.9574 75.9885 72.1861 76.7454 72.6435C77.5077 73.1009 78.1012 73.727 78.5259 74.522C78.9506 75.317 79.1603 76.2263 79.1548 77.25C79.1603 78.4479 78.8771 79.4961 78.3054 80.3945C77.7391 81.293 76.9523 81.9899 75.945 82.4854C74.9376 82.9809 73.7751 83.2287 72.4574 83.2287ZM72.4247 79.7983C72.8767 79.7983 73.2769 79.6948 73.6254 79.4879C73.9793 79.281 74.2543 78.9979 74.4503 78.6385C74.6518 78.2791 74.7498 77.8707 74.7443 77.4134C74.7498 76.9505 74.6518 76.5421 74.4503 76.1882C74.2543 75.8288 73.9793 75.5457 73.6254 75.3388C73.2769 75.1319 72.8767 75.0284 72.4247 75.0284C72.0926 75.0284 71.7849 75.0883 71.5018 75.2081C71.2241 75.3224 70.9818 75.4885 70.7749 75.7063C70.5679 75.9187 70.4046 76.1719 70.2848 76.4659C70.1705 76.7545 70.1106 77.0703 70.1051 77.4134C70.1106 77.8707 70.214 78.2791 70.4155 78.6385C70.617 78.9979 70.8919 79.281 71.2404 79.4879C71.5889 79.6948 71.9837 79.7983 72.4247 79.7983ZM92.3935 79.8636V78.9815C92.3935 78.2737 92.5459 77.6203 92.8509 77.0213C93.1612 76.4223 93.6104 75.9405 94.1985 75.5756C94.7866 75.2108 95.5026 75.0284 96.3466 75.0284C97.2124 75.0284 97.9393 75.2081 98.5274 75.5675C99.1209 75.9268 99.5701 76.406 99.875 77.005C100.18 77.6039 100.332 78.2628 100.332 78.9815V79.8636C100.332 80.5715 100.177 81.2249 99.8668 81.8239C99.5619 82.4228 99.1127 82.9047 98.5192 83.2695C97.9257 83.6344 97.2015 83.8168 96.3466 83.8168C95.4917 83.8168 94.7703 83.6344 94.1822 83.2695C93.5941 82.9047 93.1476 82.4228 92.8427 81.8239C92.5432 81.2249 92.3935 80.5715 92.3935 79.8636ZM95.2358 78.9815V79.8636C95.2358 80.174 95.312 80.4817 95.4645 80.7866C95.6224 81.0861 95.9164 81.2358 96.3466 81.2358C96.7985 81.2358 97.0953 81.0888 97.2369 80.7947C97.3839 80.5007 97.4574 80.1903 97.4574 79.8636V78.9815C97.4574 78.6548 97.3893 78.339 97.2532 78.0341C97.1171 77.7292 96.8149 77.5767 96.3466 77.5767C95.9164 77.5767 95.6224 77.7292 95.4645 78.0341C95.312 78.339 95.2358 78.6548 95.2358 78.9815ZM83.6378 70.2912V69.4091C83.6378 68.6903 83.793 68.0315 84.1033 67.4325C84.4192 66.8336 84.8711 66.3544 85.4592 65.995C86.0472 65.6357 86.7578 65.456 87.5909 65.456C88.4567 65.456 89.1836 65.6357 89.7717 65.995C90.3652 66.3544 90.8144 66.8336 91.1193 67.4325C91.4243 68.0315 91.5767 68.6903 91.5767 69.4091V70.2912C91.5767 71.0099 91.4215 71.6661 91.1112 72.2596C90.8062 72.8531 90.357 73.3268 89.7635 73.6808C89.17 74.0347 88.4458 74.2116 87.5909 74.2116C86.736 74.2116 86.0146 74.032 85.4265 73.6726C84.8384 73.3132 84.3919 72.8368 84.087 72.2433C83.7875 71.6497 83.6378 70.9991 83.6378 70.2912ZM86.5128 69.4091V70.2912C86.5128 70.6179 86.589 70.9283 86.7415 71.2223C86.8939 71.5163 87.1771 71.6634 87.5909 71.6634C88.0429 71.6634 88.3396 71.5163 88.4812 71.2223C88.6282 70.9283 88.7017 70.6179 88.7017 70.2912V69.4091C88.7017 69.0824 88.6336 68.7666 88.4975 68.4616C88.3614 68.1567 88.0592 68.0043 87.5909 68.0043C87.1608 68.0043 86.8722 68.1622 86.7252 68.478C86.5836 68.7884 86.5128 69.0987 86.5128 69.4091ZM85.0263 83L96.5263 66.2727H98.8459L87.3459 83H85.0263Z" fill="white"/>
<path d="M145 72.5C145 112.541 112.541 145 72.5 145C32.4594 145 0 112.541 0 72.5C0 32.4594 32.4594 0 72.5 0C112.541 0 145 32.4594 145 72.5ZM17.4727 72.5C17.4727 102.891 42.1093 127.527 72.5 127.527C102.891 127.527 127.527 102.891 127.527 72.5C127.527 42.1093 102.891 17.4727 72.5 17.4727C42.1093 17.4727 17.4727 42.1093 17.4727 72.5Z" fill="#D9D9D9"/>
<path d="M55.9968 10.9091C54.748 6.2485 49.9297 3.43385 45.4531 5.23377C31.1996 10.9646 19.0573 21.1116 10.8828 34.2957C1.16564 49.9679 -2.21449 68.7538 1.43034 86.8302C5.07517 104.907 15.471 120.915 30.5021 131.597C45.5332 142.279 64.0698 146.832 82.3394 144.329C100.609 141.827 117.238 132.456 128.843 118.126C140.448 103.795 146.156 85.5809 144.805 67.1902C143.455 48.7996 135.147 31.6147 121.574 19.133C110.155 8.63279 95.7309 2.12494 80.4614 0.438235C75.6656 -0.0915195 71.7818 3.91517 71.8323 8.73986C71.8828 13.5646 75.8586 17.3636 80.6306 18.0765C91.4434 19.6919 101.602 24.5053 109.747 31.9946C120.049 41.4682 126.354 54.5115 127.379 68.4699C128.405 82.4283 124.072 96.2528 115.264 107.13C106.456 118.007 93.8346 125.119 79.9681 127.018C66.1015 128.918 52.0323 125.462 40.6237 117.354C29.2152 109.247 21.3248 97.0964 18.5584 83.3765C15.7919 69.6566 18.3574 55.3982 25.7327 43.5031C31.5632 34.0994 40.0533 26.7315 50.0333 22.2678C54.4378 20.2979 57.2456 15.5696 55.9968 10.9091Z" fill="#8F00FF"/>
</svg>
