<svg width="145" height="207" viewBox="0 0 145 207" fill="none" xmlns="http://www.w3.org/2000/svg">
<path d="M40.3591 168.099C40.2407 167.716 40.0773 167.373 39.869 167.07C39.6654 166.762 39.4192 166.499 39.1304 166.281C38.8463 166.063 38.5196 165.9 38.1502 165.791C37.7809 165.678 37.3785 165.621 36.9429 165.621C36.1616 165.621 35.4656 165.817 34.8548 166.21C34.244 166.603 33.7634 167.181 33.413 167.943C33.0674 168.701 32.8946 169.624 32.8946 170.713C32.8946 171.812 33.0674 172.742 33.413 173.504C33.7587 174.267 34.2393 174.847 34.8548 175.244C35.4703 175.637 36.1853 175.834 36.9997 175.834C37.7383 175.834 38.3775 175.692 38.9173 175.408C39.4618 175.124 39.8808 174.721 40.1744 174.2C40.468 173.675 40.6147 173.059 40.6147 172.354L41.2113 172.446H37.2625V170.386H43.1645V172.134C43.1645 173.379 42.8993 174.456 42.369 175.365C41.8387 176.274 41.1095 176.975 40.1815 177.467C39.2535 177.955 38.1881 178.199 36.9855 178.199C35.6455 178.199 34.4689 177.898 33.4556 177.297C32.4471 176.691 31.6588 175.831 31.0906 174.719C30.5271 173.601 30.2454 172.276 30.2454 170.741C30.2454 169.567 30.4111 168.518 30.7426 167.595C31.0788 166.672 31.5475 165.888 32.1488 165.244C32.7502 164.596 33.4556 164.103 34.2653 163.767C35.075 163.426 35.9556 163.256 36.9073 163.256C37.7123 163.256 38.4627 163.374 39.1588 163.611C39.8548 163.843 40.4727 164.174 41.0125 164.605C41.557 165.036 42.0044 165.547 42.3548 166.139C42.7052 166.731 42.9348 167.384 43.0437 168.099H40.3591ZM46.9988 178V167.091H49.4917V168.909H49.6053C49.8042 168.279 50.1451 167.794 50.628 167.453C51.1157 167.107 51.6721 166.935 52.2971 166.935C52.4391 166.935 52.5977 166.942 52.7729 166.956C52.9528 166.965 53.102 166.982 53.2203 167.006V169.371C53.1114 169.333 52.9386 169.3 52.7019 169.271C52.4699 169.238 52.245 169.222 52.0272 169.222C51.5584 169.222 51.137 169.323 50.763 169.527C50.3936 169.726 50.1024 170.003 49.8894 170.358C49.6763 170.713 49.5698 171.123 49.5698 171.587V178H46.9988ZM59.2723 178.22C58.581 178.22 57.9584 178.097 57.4044 177.851C56.8552 177.6 56.4196 177.231 56.0976 176.743C55.7804 176.255 55.6218 175.654 55.6218 174.939C55.6218 174.323 55.7354 173.814 55.9627 173.412C56.1899 173.009 56.5001 172.688 56.8931 172.446C57.2861 172.205 57.7288 172.022 58.2212 171.899C58.7184 171.771 59.2321 171.679 59.7624 171.622C60.4016 171.556 60.9201 171.497 61.3178 171.445C61.7155 171.388 62.0043 171.303 62.1843 171.189C62.3689 171.071 62.4613 170.888 62.4613 170.642V170.599C62.4613 170.064 62.3026 169.65 61.9854 169.357C61.6682 169.063 61.2113 168.916 60.6147 168.916C59.9849 168.916 59.4854 169.054 59.1161 169.328C58.7515 169.603 58.5053 169.927 58.3774 170.301L55.9769 169.96C56.1663 169.297 56.4788 168.743 56.9144 168.298C57.35 167.848 57.8827 167.512 58.5124 167.29C59.1421 167.062 59.8381 166.949 60.6005 166.949C61.126 166.949 61.6492 167.01 62.1701 167.134C62.6909 167.257 63.1667 167.46 63.5976 167.744C64.0285 168.024 64.3741 168.405 64.6346 168.888C64.8997 169.371 65.0323 169.974 65.0323 170.699V178H62.5607V176.501H62.4755C62.3192 176.804 62.099 177.089 61.8149 177.354C61.5356 177.614 61.1828 177.825 60.7567 177.986C60.3353 178.142 59.8405 178.22 59.2723 178.22ZM59.9399 176.331C60.456 176.331 60.9035 176.229 61.2823 176.026C61.6611 175.817 61.9523 175.543 62.1559 175.202C62.3642 174.861 62.4684 174.489 62.4684 174.087V172.801C62.3879 172.867 62.2506 172.929 62.0564 172.986C61.867 173.043 61.654 173.092 61.4172 173.135C61.1805 173.178 60.9461 173.215 60.7141 173.249C60.4821 173.282 60.2809 173.31 60.1104 173.334C59.7269 173.386 59.3836 173.471 59.0806 173.589C58.7775 173.708 58.5384 173.874 58.3632 174.087C58.1881 174.295 58.1005 174.565 58.1005 174.896C58.1005 175.37 58.2733 175.727 58.6189 175.969C58.9646 176.21 59.4049 176.331 59.9399 176.331ZM69.0175 182.091V167.091H71.5459V168.895H71.6951C71.8276 168.63 72.0147 168.348 72.2561 168.05C72.4976 167.747 72.8243 167.489 73.2363 167.276C73.6482 167.058 74.1738 166.949 74.813 166.949C75.6558 166.949 76.4157 167.164 77.0928 167.595C77.7746 168.021 78.3144 168.653 78.7121 169.491C79.1146 170.325 79.3158 171.348 79.3158 172.56C79.3158 173.758 79.1193 174.776 78.7263 175.614C78.3333 176.452 77.7983 177.091 77.1212 177.531C76.4441 177.972 75.6771 178.192 74.8201 178.192C74.1951 178.192 73.6766 178.088 73.2647 177.879C72.8527 177.671 72.5213 177.42 72.2703 177.126C72.0241 176.828 71.8324 176.546 71.6951 176.281H71.5885V182.091H69.0175ZM71.5388 172.545C71.5388 173.251 71.6382 173.869 71.8371 174.399C72.0407 174.929 72.3319 175.344 72.7107 175.642C73.0942 175.936 73.5582 176.082 74.1027 176.082C74.6709 176.082 75.1468 175.931 75.5303 175.628C75.9138 175.32 76.2026 174.901 76.3968 174.371C76.5956 173.836 76.6951 173.227 76.6951 172.545C76.6951 171.868 76.598 171.267 76.4039 170.741C76.2097 170.216 75.9209 169.804 75.5374 169.506C75.1539 169.207 74.6757 169.058 74.1027 169.058C73.5535 169.058 73.0871 169.203 72.7036 169.491C72.3201 169.78 72.0289 170.185 71.83 170.706C71.6359 171.227 71.5388 171.84 71.5388 172.545ZM85.4885 171.608V178H82.9175V163.455H85.4317V168.945H85.5595C85.8152 168.329 86.2106 167.844 86.7456 167.489C87.2854 167.129 87.972 166.949 88.8053 166.949C89.5629 166.949 90.2234 167.107 90.7868 167.425C91.3503 167.742 91.7859 168.206 92.0936 168.817C92.4061 169.428 92.5624 170.173 92.5624 171.054V178H89.9914V171.452C89.9914 170.718 89.802 170.147 89.4232 169.74C89.0491 169.328 88.5236 169.122 87.8465 169.122C87.3919 169.122 86.9847 169.222 86.6249 169.42C86.2698 169.615 85.9904 169.896 85.7868 170.266C85.588 170.635 85.4885 171.082 85.4885 171.608ZM96.5831 178V167.091H99.1542V178H96.5831ZM97.8757 165.543C97.4685 165.543 97.1182 165.408 96.8246 165.138C96.531 164.863 96.3843 164.534 96.3843 164.151C96.3843 163.762 96.531 163.433 96.8246 163.163C97.1182 162.889 97.4685 162.751 97.8757 162.751C98.2877 162.751 98.6381 162.889 98.9269 163.163C99.2204 163.433 99.3672 163.762 99.3672 164.151C99.3672 164.534 99.2204 164.863 98.9269 165.138C98.6381 165.408 98.2877 165.543 97.8757 165.543ZM107.956 178.213C106.867 178.213 105.932 177.974 105.151 177.496C104.375 177.018 103.776 176.357 103.354 175.514C102.938 174.667 102.729 173.691 102.729 172.588C102.729 171.48 102.942 170.502 103.368 169.655C103.795 168.803 104.396 168.14 105.172 167.666C105.954 167.188 106.877 166.949 107.942 166.949C108.828 166.949 109.611 167.112 110.293 167.439C110.98 167.761 111.527 168.218 111.934 168.81C112.341 169.397 112.573 170.083 112.63 170.869H110.172C110.073 170.344 109.836 169.906 109.462 169.555C109.093 169.2 108.598 169.023 107.978 169.023C107.452 169.023 106.991 169.165 106.593 169.449C106.195 169.728 105.885 170.131 105.662 170.656C105.445 171.182 105.336 171.812 105.336 172.545C105.336 173.289 105.445 173.928 105.662 174.463C105.88 174.993 106.186 175.403 106.579 175.692C106.976 175.976 107.443 176.118 107.978 176.118C108.357 176.118 108.695 176.047 108.993 175.905C109.296 175.758 109.55 175.547 109.753 175.273C109.957 174.998 110.097 174.664 110.172 174.271H112.63C112.568 175.043 112.341 175.727 111.948 176.324C111.555 176.916 111.02 177.38 110.343 177.716C109.666 178.047 108.87 178.213 107.956 178.213ZM24.1992 202H19.2702V187.455H24.2986C25.7427 187.455 26.9833 187.746 28.0202 188.328C29.0619 188.906 29.8621 189.737 30.4208 190.821C30.9795 191.905 31.2588 193.203 31.2588 194.713C31.2588 196.228 30.9771 197.53 30.4137 198.619C29.855 199.708 29.0477 200.544 27.9918 201.126C26.9407 201.709 25.6765 202 24.1992 202ZM21.9052 199.72H24.0713C25.0846 199.72 25.9298 199.536 26.6069 199.166C27.2839 198.792 27.7929 198.236 28.1338 197.497C28.4748 196.754 28.6452 195.826 28.6452 194.713C28.6452 193.6 28.4748 192.677 28.1338 191.943C27.7929 191.205 27.2887 190.653 26.6211 190.288C25.9582 189.919 25.1343 189.734 24.1495 189.734H21.9052V199.72ZM39.8783 202.213C38.7846 202.213 37.84 201.986 37.0445 201.531C36.2538 201.072 35.6453 200.423 35.2192 199.585C34.7931 198.742 34.58 197.75 34.58 196.609C34.58 195.487 34.7931 194.502 35.2192 193.655C35.6501 192.803 36.2514 192.14 37.0232 191.666C37.795 191.188 38.7017 190.949 39.7434 190.949C40.4157 190.949 41.0502 191.058 41.6468 191.276C42.2481 191.489 42.7784 191.82 43.2377 192.27C43.7017 192.72 44.0663 193.293 44.3314 193.989C44.5966 194.68 44.7292 195.504 44.7292 196.46V197.249H35.7874V195.516H42.2647C42.2599 195.023 42.1534 194.585 41.9451 194.202C41.7367 193.813 41.4455 193.508 41.0715 193.286C40.7022 193.063 40.2713 192.952 39.7789 192.952C39.2533 192.952 38.7917 193.08 38.3939 193.335C37.9962 193.586 37.6861 193.918 37.4635 194.33C37.2457 194.737 37.1345 195.184 37.1297 195.672V197.185C37.1297 197.819 37.2457 198.364 37.4777 198.818C37.7097 199.268 38.0341 199.614 38.4507 199.855C38.8674 200.092 39.3551 200.21 39.9138 200.21C40.2879 200.21 40.6264 200.158 40.9294 200.054C41.2325 199.945 41.4953 199.786 41.7178 199.578C41.9403 199.37 42.1084 199.112 42.2221 198.804L44.6226 199.074C44.4711 199.708 44.1823 200.262 43.7561 200.736C43.3347 201.205 42.795 201.569 42.1368 201.83C41.4787 202.085 40.7258 202.213 39.8783 202.213ZM56.9264 193.974L54.5826 194.23C54.5163 193.993 54.4003 193.771 54.2346 193.562C54.0736 193.354 53.8558 193.186 53.5812 193.058C53.3066 192.93 52.9704 192.866 52.5727 192.866C52.0377 192.866 51.5878 192.982 51.2233 193.214C50.8634 193.446 50.6859 193.747 50.6906 194.116C50.6859 194.434 50.8019 194.692 51.0386 194.891C51.2801 195.089 51.6778 195.253 52.2318 195.381L54.0926 195.778C55.1248 196.001 55.8918 196.354 56.3937 196.837C56.9003 197.32 57.156 197.952 57.1608 198.733C57.156 199.42 56.9548 200.026 56.5571 200.551C56.1641 201.072 55.6172 201.479 54.9164 201.773C54.2157 202.066 53.4108 202.213 52.5017 202.213C51.1664 202.213 50.0916 201.934 49.2772 201.375C48.4628 200.812 47.9775 200.028 47.8213 199.024L50.3284 198.783C50.442 199.275 50.6835 199.647 51.0528 199.898C51.4221 200.149 51.9027 200.274 52.4946 200.274C53.1054 200.274 53.5954 200.149 53.9647 199.898C54.3388 199.647 54.5258 199.337 54.5258 198.967C54.5258 198.655 54.4051 198.397 54.1636 198.193C53.9269 197.99 53.5575 197.833 53.0556 197.724L51.1949 197.334C50.1485 197.116 49.3743 196.749 48.8724 196.233C48.3705 195.712 48.1219 195.054 48.1267 194.259C48.1219 193.586 48.3042 193.004 48.6735 192.511C49.0476 192.014 49.5661 191.631 50.2289 191.361C50.8966 191.086 51.666 190.949 52.5372 190.949C53.8156 190.949 54.8217 191.221 55.5556 191.766C56.2943 192.31 56.7512 193.046 56.9264 193.974ZM60.6808 202V191.091H63.2518V202H60.6808ZM61.9734 189.543C61.5662 189.543 61.2158 189.408 60.9223 189.138C60.6287 188.863 60.4819 188.534 60.4819 188.151C60.4819 187.762 60.6287 187.433 60.9223 187.163C61.2158 186.889 61.5662 186.751 61.9734 186.751C62.3853 186.751 62.7357 186.889 63.0245 187.163C63.3181 187.433 63.4649 187.762 63.4649 188.151C63.4649 188.534 63.3181 188.863 63.0245 189.138C62.7357 189.408 62.3853 189.543 61.9734 189.543ZM72.04 206.318C71.1167 206.318 70.3236 206.193 69.6607 205.942C68.9978 205.696 68.4651 205.364 68.0627 204.947C67.6602 204.531 67.3809 204.069 67.2246 203.562L69.54 203.001C69.6441 203.214 69.7956 203.425 69.9945 203.634C70.1934 203.847 70.4609 204.022 70.7971 204.159C71.138 204.301 71.5665 204.372 72.0826 204.372C72.8117 204.372 73.4154 204.195 73.8936 203.839C74.3719 203.489 74.611 202.911 74.611 202.107V200.04H74.4831C74.3506 200.305 74.1564 200.577 73.9007 200.857C73.6498 201.136 73.316 201.37 72.8993 201.56C72.4874 201.749 71.9689 201.844 71.3439 201.844C70.5059 201.844 69.7459 201.647 69.0641 201.254C68.387 200.857 67.8472 200.265 67.4448 199.479C67.0471 198.688 66.8482 197.698 66.8482 196.51C66.8482 195.312 67.0471 194.301 67.4448 193.477C67.8472 192.649 68.3894 192.021 69.0712 191.595C69.753 191.164 70.513 190.949 71.351 190.949C71.9902 190.949 72.5158 191.058 72.9277 191.276C73.3444 191.489 73.6758 191.747 73.9221 192.05C74.1683 192.348 74.3553 192.63 74.4831 192.895H74.6252V191.091H77.1607V202.178C77.1607 203.11 76.9382 203.882 76.4931 204.493C76.048 205.104 75.4396 205.561 74.6678 205.864C73.896 206.167 73.0201 206.318 72.04 206.318ZM72.0613 199.827C72.6058 199.827 73.0698 199.694 73.4533 199.429C73.8368 199.164 74.128 198.783 74.3269 198.286C74.5257 197.788 74.6252 197.192 74.6252 196.496C74.6252 195.809 74.5257 195.208 74.3269 194.692C74.1328 194.176 73.8439 193.776 73.4604 193.491C73.0816 193.203 72.6152 193.058 72.0613 193.058C71.4883 193.058 71.0101 193.207 70.6266 193.506C70.2431 193.804 69.9542 194.214 69.7601 194.734C69.566 195.25 69.4689 195.838 69.4689 196.496C69.4689 197.163 69.566 197.748 69.7601 198.25C69.959 198.747 70.2502 199.135 70.6337 199.415C71.022 199.689 71.4978 199.827 72.0613 199.827ZM83.7667 195.608V202H81.1956V191.091H83.653V192.945H83.7809C84.0318 192.334 84.4319 191.848 84.9811 191.489C85.5351 191.129 86.2193 190.949 87.0337 190.949C87.7865 190.949 88.4423 191.11 89.001 191.432C89.5645 191.754 90.0001 192.22 90.3078 192.831C90.6203 193.442 90.7742 194.183 90.7695 195.054V202H88.1985V195.452C88.1985 194.723 88.0091 194.152 87.6303 193.74C87.2562 193.328 86.7378 193.122 86.0749 193.122C85.6251 193.122 85.225 193.222 84.8746 193.42C84.529 193.615 84.2567 193.896 84.0578 194.266C83.8637 194.635 83.7667 195.082 83.7667 195.608ZM94.7831 202V191.091H97.3542V202H94.7831ZM96.0757 189.543C95.6686 189.543 95.3182 189.408 95.0246 189.138C94.7311 188.863 94.5843 188.534 94.5843 188.151C94.5843 187.762 94.7311 187.433 95.0246 187.163C95.3182 186.889 95.6686 186.751 96.0757 186.751C96.4877 186.751 96.8381 186.889 97.1269 187.163C97.4204 187.433 97.5672 187.762 97.5672 188.151C97.5672 188.534 97.4204 188.863 97.1269 189.138C96.8381 189.408 96.4877 189.543 96.0757 189.543ZM103.969 195.608V202H101.398V191.091H103.855V192.945H103.983C104.234 192.334 104.634 191.848 105.183 191.489C105.737 191.129 106.422 190.949 107.236 190.949C107.989 190.949 108.645 191.11 109.203 191.432C109.767 191.754 110.202 192.22 110.51 192.831C110.823 193.442 110.977 194.183 110.972 195.054V202H108.401V195.452C108.401 194.723 108.211 194.152 107.833 193.74C107.459 193.328 106.94 193.122 106.277 193.122C105.827 193.122 105.427 193.222 105.077 193.42C104.731 193.615 104.459 193.896 104.26 194.266C104.066 194.635 103.969 195.082 103.969 195.608ZM119.73 206.318C118.806 206.318 118.013 206.193 117.351 205.942C116.688 205.696 116.155 205.364 115.753 204.947C115.35 204.531 115.071 204.069 114.914 203.562L117.23 203.001C117.334 203.214 117.485 203.425 117.684 203.634C117.883 203.847 118.151 204.022 118.487 204.159C118.828 204.301 119.256 204.372 119.772 204.372C120.502 204.372 121.105 204.195 121.583 203.839C122.062 203.489 122.301 202.911 122.301 202.107V200.04H122.173C122.04 200.305 121.846 200.577 121.591 200.857C121.34 201.136 121.006 201.37 120.589 201.56C120.177 201.749 119.659 201.844 119.034 201.844C118.196 201.844 117.436 201.647 116.754 201.254C116.077 200.857 115.537 200.265 115.135 199.479C114.737 198.688 114.538 197.698 114.538 196.51C114.538 195.312 114.737 194.301 115.135 193.477C115.537 192.649 116.079 192.021 116.761 191.595C117.443 191.164 118.203 190.949 119.041 190.949C119.68 190.949 120.206 191.058 120.618 191.276C121.034 191.489 121.366 191.747 121.612 192.05C121.858 192.348 122.045 192.63 122.173 192.895H122.315V191.091H124.851V202.178C124.851 203.11 124.628 203.882 124.183 204.493C123.738 205.104 123.129 205.561 122.358 205.864C121.586 206.167 120.71 206.318 119.73 206.318ZM119.751 199.827C120.296 199.827 120.76 199.694 121.143 199.429C121.527 199.164 121.818 198.783 122.017 198.286C122.216 197.788 122.315 197.192 122.315 196.496C122.315 195.809 122.216 195.208 122.017 194.692C121.823 194.176 121.534 193.776 121.15 193.491C120.771 193.203 120.305 193.058 119.751 193.058C119.178 193.058 118.7 193.207 118.316 193.506C117.933 193.804 117.644 194.214 117.45 194.734C117.256 195.25 117.159 195.838 117.159 196.496C117.159 197.163 117.256 197.748 117.45 198.25C117.649 198.747 117.94 199.135 118.324 199.415C118.712 199.689 119.188 199.827 119.751 199.827Z" fill="white"/>
<path d="M45.3111 66.2727V83H40.7699V70.4545H40.6719L37.0128 72.6435V68.7884L41.1293 66.2727H45.3111ZM57.6411 83.4574C56.1219 83.4519 54.8096 83.1007 53.7043 82.4038C52.5989 81.7068 51.7468 80.7022 51.1478 79.3899C50.5489 78.0777 50.2521 76.504 50.2575 74.669C50.263 72.8286 50.5625 71.2659 51.156 69.9808C51.7549 68.6958 52.6044 67.7184 53.7043 67.0487C54.8096 66.3789 56.1219 66.044 57.6411 66.044C59.1602 66.044 60.4725 66.3816 61.5779 67.0568C62.6832 67.7266 63.5354 68.704 64.1343 69.989C64.7333 71.274 65.03 72.834 65.0246 74.669C65.0246 76.5149 64.7251 78.094 64.1262 79.4062C63.5272 80.7185 62.675 81.7231 61.5697 82.4201C60.4698 83.1116 59.1602 83.4574 57.6411 83.4574ZM57.6411 79.7656C58.4252 79.7656 59.0677 79.3572 59.5686 78.5405C60.075 77.7183 60.3255 76.4278 60.32 74.669C60.32 73.5201 60.2057 72.5808 59.977 71.8512C59.7483 71.1216 59.4325 70.5825 59.0296 70.234C58.6266 69.8801 58.1638 69.7031 57.6411 69.7031C56.857 69.7031 56.2172 70.1006 55.7217 70.8956C55.2262 71.6906 54.973 72.9484 54.9621 74.669C54.9566 75.8397 55.0683 76.8035 55.297 77.5604C55.5257 78.3118 55.8415 78.8672 56.2444 79.2266C56.6528 79.5859 57.1183 79.7656 57.6411 79.7656ZM76.0519 83.4574C74.5327 83.4519 73.2204 83.1007 72.1151 82.4038C71.0097 81.7068 70.1576 80.7022 69.5586 79.3899C68.9596 78.0777 68.6629 76.504 68.6683 74.669C68.6738 72.8286 68.9733 71.2659 69.5668 69.9808C70.1657 68.6958 71.0152 67.7184 72.1151 67.0487C73.2204 66.3789 74.5327 66.044 76.0519 66.044C77.571 66.044 78.8833 66.3816 79.9886 67.0568C81.094 67.7266 81.9461 68.704 82.5451 69.989C83.1441 71.274 83.4408 72.834 83.4354 74.669C83.4354 76.5149 83.1359 78.094 82.5369 79.4062C81.938 80.7185 81.0858 81.7231 79.9805 82.4201C78.8806 83.1116 77.571 83.4574 76.0519 83.4574ZM76.0519 79.7656C76.8359 79.7656 77.4785 79.3572 77.9794 78.5405C78.4858 77.7183 78.7363 76.4278 78.7308 74.669C78.7308 73.5201 78.6165 72.5808 78.3878 71.8512C78.1591 71.1216 77.8433 70.5825 77.4403 70.234C77.0374 69.8801 76.5746 69.7031 76.0519 69.7031C75.2678 69.7031 74.628 70.1006 74.1325 70.8956C73.637 71.6906 73.3838 72.9484 73.3729 74.669C73.3674 75.8397 73.4791 76.8035 73.7077 77.5604C73.9364 78.3118 74.2523 78.8672 74.6552 79.2266C75.0636 79.5859 75.5291 79.7656 76.0519 79.7656ZM96.7496 79.8636V78.9815C96.7496 78.2737 96.902 77.6203 97.207 77.0213C97.5173 76.4223 97.9665 75.9405 98.5546 75.5756C99.1427 75.2108 99.8587 75.0284 100.703 75.0284C101.568 75.0284 102.295 75.2081 102.883 75.5675C103.477 75.9268 103.926 76.406 104.231 77.005C104.536 77.6039 104.688 78.2628 104.688 78.9815V79.8636C104.688 80.5715 104.533 81.2249 104.223 81.8239C103.918 82.4228 103.469 82.9047 102.875 83.2695C102.282 83.6344 101.558 83.8168 100.703 83.8168C99.8478 83.8168 99.1263 83.6344 98.5383 83.2695C97.9502 82.9047 97.5037 82.4228 97.1988 81.8239C96.8993 81.2249 96.7496 80.5715 96.7496 79.8636ZM99.5919 78.9815V79.8636C99.5919 80.174 99.6681 80.4817 99.8206 80.7866C99.9785 81.0861 100.273 81.2358 100.703 81.2358C101.155 81.2358 101.451 81.0888 101.593 80.7947C101.74 80.5007 101.813 80.1903 101.813 79.8636V78.9815C101.813 78.6548 101.745 78.339 101.609 78.0341C101.473 77.7292 101.171 77.5767 100.703 77.5767C100.273 77.5767 99.9785 77.7292 99.8206 78.0341C99.6681 78.339 99.5919 78.6548 99.5919 78.9815ZM87.9939 70.2912V69.4091C87.9939 68.6903 88.1491 68.0315 88.4594 67.4325C88.7753 66.8336 89.2272 66.3544 89.8153 65.995C90.4033 65.6357 91.1139 65.456 91.947 65.456C92.8128 65.456 93.5397 65.6357 94.1278 65.995C94.7213 66.3544 95.1705 66.8336 95.4754 67.4325C95.7803 68.0315 95.9328 68.6903 95.9328 69.4091V70.2912C95.9328 71.0099 95.7776 71.6661 95.4673 72.2596C95.1623 72.8531 94.7131 73.3268 94.1196 73.6808C93.5261 74.0347 92.8019 74.2116 91.947 74.2116C91.0921 74.2116 90.3707 74.032 89.7826 73.6726C89.1945 73.3132 88.748 72.8368 88.4431 72.2433C88.1436 71.6497 87.9939 70.9991 87.9939 70.2912ZM90.8689 69.4091V70.2912C90.8689 70.6179 90.9451 70.9283 91.0976 71.2223C91.25 71.5163 91.5332 71.6634 91.947 71.6634C92.399 71.6634 92.6957 71.5163 92.8373 71.2223C92.9843 70.9283 93.0578 70.6179 93.0578 70.2912V69.4091C93.0578 69.0824 92.9897 68.7666 92.8536 68.4616C92.7175 68.1567 92.4153 68.0043 91.947 68.0043C91.5169 68.0043 91.2283 68.1622 91.0812 68.478C90.9397 68.7884 90.8689 69.0987 90.8689 69.4091ZM89.3824 83L100.882 66.2727H103.202L91.702 83H89.3824Z" fill="white"/>
<path d="M145 72.5C145 112.541 112.541 145 72.5 145C32.4594 145 0 112.541 0 72.5C0 32.4594 32.4594 0 72.5 0C112.541 0 145 32.4594 145 72.5ZM17.4727 72.5C17.4727 102.891 42.1093 127.527 72.5 127.527C102.891 127.527 127.527 102.891 127.527 72.5C127.527 42.1093 102.891 17.4727 72.5 17.4727C42.1093 17.4727 17.4727 42.1093 17.4727 72.5Z" fill="#D9D9D9"/>
<path d="M145 72.5C145 112.541 112.541 145 72.5 145C32.4594 145 0 112.541 0 72.5C0 32.4594 32.4594 0 72.5 0C112.541 0 145 32.4594 145 72.5ZM17.4727 72.5C17.4727 102.891 42.1093 127.527 72.5 127.527C102.891 127.527 127.527 102.891 127.527 72.5C127.527 42.1093 102.891 17.4727 72.5 17.4727C42.1093 17.4727 17.4727 42.1093 17.4727 72.5Z" fill="#8F00FF"/>
</svg>
