<svg width="145" height="184" viewBox="0 0 145 184" fill="none" xmlns="http://www.w3.org/2000/svg">
<path d="M45.4347 179V164.455H48.0696V176.791H54.4759V179H45.4347ZM62.8077 179.213C61.7423 179.213 60.819 178.979 60.0378 178.51C59.2565 178.041 58.6505 177.385 58.2196 176.543C57.7935 175.7 57.5804 174.715 57.5804 173.588C57.5804 172.461 57.7935 171.474 58.2196 170.626C58.6505 169.779 59.2565 169.121 60.0378 168.652C60.819 168.183 61.7423 167.949 62.8077 167.949C63.873 167.949 64.7963 168.183 65.5776 168.652C66.3588 169.121 66.9625 169.779 67.3886 170.626C67.8195 171.474 68.0349 172.461 68.0349 173.588C68.0349 174.715 67.8195 175.7 67.3886 176.543C66.9625 177.385 66.3588 178.041 65.5776 178.51C64.7963 178.979 63.873 179.213 62.8077 179.213ZM62.8219 177.153C63.3995 177.153 63.8825 176.995 64.2707 176.678C64.659 176.356 64.9478 175.925 65.1372 175.385C65.3313 174.845 65.4284 174.244 65.4284 173.581C65.4284 172.913 65.3313 172.31 65.1372 171.77C64.9478 171.225 64.659 170.792 64.2707 170.47C63.8825 170.148 63.3995 169.987 62.8219 169.987C62.23 169.987 61.7376 170.148 61.3446 170.47C60.9563 170.792 60.6652 171.225 60.471 171.77C60.2816 172.31 60.1869 172.913 60.1869 173.581C60.1869 174.244 60.2816 174.845 60.471 175.385C60.6652 175.925 60.9563 176.356 61.3446 176.678C61.7376 176.995 62.23 177.153 62.8219 177.153ZM76.3614 183.318C75.4381 183.318 74.6451 183.193 73.9822 182.942C73.3193 182.696 72.7866 182.364 72.3842 181.947C71.9817 181.531 71.7023 181.069 71.5461 180.562L73.8614 180.001C73.9656 180.214 74.1171 180.425 74.316 180.634C74.5148 180.847 74.7824 181.022 75.1185 181.159C75.4594 181.301 75.8879 181.372 76.404 181.372C77.1332 181.372 77.7369 181.195 78.2151 180.839C78.6933 180.489 78.9325 179.911 78.9325 179.107V177.04H78.8046C78.672 177.305 78.4779 177.577 78.2222 177.857C77.9713 178.136 77.6375 178.37 77.2208 178.56C76.8089 178.749 76.2904 178.844 75.6654 178.844C74.8273 178.844 74.0674 178.647 73.3856 178.254C72.7085 177.857 72.1687 177.265 71.7663 176.479C71.3685 175.688 71.1697 174.698 71.1697 173.51C71.1697 172.312 71.3685 171.301 71.7663 170.477C72.1687 169.649 72.7109 169.021 73.3927 168.595C74.0745 168.164 74.8344 167.949 75.6725 167.949C76.3117 167.949 76.8373 168.058 77.2492 168.276C77.6659 168.489 77.9973 168.747 78.2435 169.05C78.4897 169.348 78.6768 169.63 78.8046 169.895H78.9467V168.091H81.4822V179.178C81.4822 180.11 81.2596 180.882 80.8146 181.493C80.3695 182.104 79.7611 182.561 78.9893 182.864C78.2175 183.167 77.3415 183.318 76.3614 183.318ZM76.3827 176.827C76.9272 176.827 77.3913 176.694 77.7748 176.429C78.1583 176.164 78.4495 175.783 78.6484 175.286C78.8472 174.788 78.9467 174.192 78.9467 173.496C78.9467 172.809 78.8472 172.208 78.6484 171.692C78.4542 171.176 78.1654 170.776 77.7819 170.491C77.4031 170.203 76.9367 170.058 76.3827 170.058C75.8098 170.058 75.3316 170.207 74.9481 170.506C74.5646 170.804 74.2757 171.214 74.0816 171.734C73.8875 172.25 73.7904 172.838 73.7904 173.496C73.7904 174.163 73.8875 174.748 74.0816 175.25C74.2805 175.747 74.5717 176.135 74.9552 176.415C75.3434 176.689 75.8193 176.827 76.3827 176.827ZM90.2756 179.213C89.2103 179.213 88.287 178.979 87.5058 178.51C86.7245 178.041 86.1184 177.385 85.6876 176.543C85.2614 175.7 85.0484 174.715 85.0484 173.588C85.0484 172.461 85.2614 171.474 85.6876 170.626C86.1184 169.779 86.7245 169.121 87.5058 168.652C88.287 168.183 89.2103 167.949 90.2756 167.949C91.341 167.949 92.2643 168.183 93.0455 168.652C93.8268 169.121 94.4305 169.779 94.8566 170.626C95.2875 171.474 95.5029 172.461 95.5029 173.588C95.5029 174.715 95.2875 175.7 94.8566 176.543C94.4305 177.385 93.8268 178.041 93.0455 178.51C92.2643 178.979 91.341 179.213 90.2756 179.213ZM90.2898 177.153C90.8675 177.153 91.3505 176.995 91.7387 176.678C92.127 176.356 92.4158 175.925 92.6052 175.385C92.7993 174.845 92.8964 174.244 92.8964 173.581C92.8964 172.913 92.7993 172.31 92.6052 171.77C92.4158 171.225 92.127 170.792 91.7387 170.47C91.3505 170.148 90.8675 169.987 90.2898 169.987C89.698 169.987 89.2056 170.148 88.8126 170.47C88.4243 170.792 88.1331 171.225 87.939 171.77C87.7496 172.31 87.6549 172.913 87.6549 173.581C87.6549 174.244 87.7496 174.845 87.939 175.385C88.1331 175.925 88.4243 176.356 88.8126 176.678C89.2056 176.995 89.698 177.153 90.2898 177.153Z" fill="white"/>
<path d="M54.9389 83.2287C53.5885 83.2287 52.3825 83.0191 51.3207 82.5998C50.2643 82.1805 49.4312 81.6115 48.8214 80.8928C48.217 80.174 47.9148 79.3627 47.9148 78.4588C47.9148 77.7673 48.0863 77.1357 48.4293 76.5639C48.7778 75.9922 49.2461 75.5185 49.8342 75.1428C50.4222 74.7616 51.0784 74.5166 51.8026 74.4077V74.277C50.8497 74.1136 50.0656 73.6916 49.4503 73.011C48.8404 72.3249 48.5355 71.5163 48.5355 70.5852C48.5355 69.7086 48.8132 68.9299 49.3686 68.2493C49.924 67.5632 50.6836 67.0241 51.6474 66.6321C52.6112 66.2401 53.7083 66.044 54.9389 66.044C56.1695 66.044 57.2667 66.2428 58.2305 66.6403C59.1942 67.0323 59.9538 67.5714 60.5092 68.2575C61.0646 68.9381 61.3423 69.714 61.3423 70.5852C61.3423 71.5218 61.032 72.3304 60.4112 73.011C59.7905 73.6916 59.0118 74.1136 58.0753 74.277V74.4077C58.794 74.5166 59.4474 74.7616 60.0355 75.1428C60.6236 75.5185 61.0919 75.9922 61.4403 76.5639C61.7888 77.1357 61.9631 77.7673 61.9631 78.4588C61.9631 79.3627 61.6581 80.174 61.0483 80.8928C60.4439 81.6115 59.6108 82.1805 58.549 82.5998C57.4927 83.0191 56.2893 83.2287 54.9389 83.2287ZM54.9389 80.0923C55.3691 80.0923 55.7502 80.0052 56.0824 79.831C56.4145 79.6567 56.6759 79.4171 56.8665 79.1122C57.0625 78.8018 57.1605 78.4534 57.1605 78.0668C57.1605 77.6802 57.0625 77.3371 56.8665 77.0376C56.6759 76.7382 56.4145 76.504 56.0824 76.3352C55.7502 76.161 55.3691 76.0739 54.9389 76.0739C54.5142 76.0739 54.133 76.161 53.7955 76.3352C53.4633 76.504 53.1992 76.7382 53.0032 77.0376C52.8126 77.3371 52.7173 77.6802 52.7173 78.0668C52.7173 78.4534 52.8126 78.7991 53.0032 79.104C53.1992 79.409 53.4633 79.6513 53.7955 79.831C54.133 80.0052 54.5142 80.0923 54.9389 80.0923ZM54.9389 72.9375C55.3201 72.9375 55.6577 72.8585 55.9517 72.7006C56.2457 72.5427 56.4772 72.3249 56.646 72.0472C56.8147 71.7695 56.8991 71.4564 56.8991 71.108C56.8991 70.7595 56.8147 70.4518 56.646 70.185C56.4772 69.9128 56.2457 69.7004 55.9517 69.5479C55.6577 69.39 55.3201 69.3111 54.9389 69.3111C54.5632 69.3111 54.2256 69.39 53.9261 69.5479C53.6321 69.7004 53.4007 69.9128 53.2319 70.185C53.0631 70.4518 52.9787 70.7595 52.9787 71.108C52.9787 71.4564 53.0631 71.7695 53.2319 72.0472C53.4007 72.3195 53.6321 72.5373 53.9261 72.7006C54.2256 72.8585 54.5632 72.9375 54.9389 72.9375ZM72.2981 83.2287C71.0131 83.2287 69.8723 83.0027 68.8759 82.5508C67.8849 82.0934 67.1035 81.4645 66.5318 80.6641C65.9655 79.8636 65.6769 78.9434 65.666 77.9034H70.0765C70.0929 78.4806 70.3161 78.9407 70.7463 79.2837C71.1819 79.6268 71.6992 79.7983 72.2981 79.7983C72.761 79.7983 73.1693 79.7003 73.5233 79.5043C73.8772 79.3028 74.1549 79.0196 74.3564 78.6548C74.5578 78.29 74.6558 77.8653 74.6504 77.3807C74.6558 76.8906 74.5578 76.4659 74.3564 76.1065C74.1549 75.7417 73.8772 75.4613 73.5233 75.2653C73.1693 75.0638 72.761 74.9631 72.2981 74.9631C71.819 74.9631 71.3752 75.0801 70.9668 75.3143C70.5639 75.543 70.2671 75.8615 70.0765 76.2699L66.0907 75.4858L66.7441 66.2727H77.9828V69.8991H70.4686L70.1419 73.5909H70.2399C70.5012 73.0845 70.9532 72.6652 71.5957 72.3331C72.2382 71.9955 72.9842 71.8267 73.8336 71.8267C74.8301 71.8267 75.7176 72.0581 76.4963 72.521C77.2804 72.9838 77.8984 73.6236 78.3503 74.4403C78.8077 75.2517 79.0337 76.1882 79.0282 77.25C79.0337 78.4152 78.756 79.4498 78.1951 80.3537C77.6397 81.2521 76.8584 81.9573 75.851 82.4691C74.8437 82.9755 73.6594 83.2287 72.2981 83.2287ZM92.1689 79.8636V78.9815C92.1689 78.2737 92.3213 77.6203 92.6263 77.0213C92.9366 76.4223 93.3858 75.9405 93.9739 75.5756C94.562 75.2108 95.278 75.0284 96.122 75.0284C96.9878 75.0284 97.7147 75.2081 98.3027 75.5675C98.8963 75.9268 99.3455 76.406 99.6504 77.005C99.9553 77.6039 100.108 78.2628 100.108 78.9815V79.8636C100.108 80.5715 99.9526 81.2249 99.6422 81.8239C99.3373 82.4228 98.8881 82.9047 98.2946 83.2695C97.7011 83.6344 96.9769 83.8168 96.122 83.8168C95.2671 83.8168 94.5456 83.6344 93.9576 83.2695C93.3695 82.9047 92.923 82.4228 92.6181 81.8239C92.3186 81.2249 92.1689 80.5715 92.1689 79.8636ZM95.0112 78.9815V79.8636C95.0112 80.174 95.0874 80.4817 95.2399 80.7866C95.3978 81.0861 95.6918 81.2358 96.122 81.2358C96.5739 81.2358 96.8707 81.0888 97.0123 80.7947C97.1593 80.5007 97.2328 80.1903 97.2328 79.8636V78.9815C97.2328 78.6548 97.1647 78.339 97.0286 78.0341C96.8925 77.7292 96.5903 77.5767 96.122 77.5767C95.6918 77.5767 95.3978 77.7292 95.2399 78.0341C95.0874 78.339 95.0112 78.6548 95.0112 78.9815ZM83.4132 70.2912V69.4091C83.4132 68.6903 83.5684 68.0315 83.8787 67.4325C84.1946 66.8336 84.6465 66.3544 85.2346 65.995C85.8226 65.6357 86.5332 65.456 87.3663 65.456C88.2321 65.456 88.959 65.6357 89.5471 65.995C90.1406 66.3544 90.5898 66.8336 90.8947 67.4325C91.1996 68.0315 91.3521 68.6903 91.3521 69.4091V70.2912C91.3521 71.0099 91.1969 71.6661 90.8865 72.2596C90.5816 72.8531 90.1324 73.3268 89.5389 73.6808C88.9454 74.0347 88.2212 74.2116 87.3663 74.2116C86.5114 74.2116 85.79 74.032 85.2019 73.6726C84.6138 73.3132 84.1673 72.8368 83.8624 72.2433C83.5629 71.6497 83.4132 70.9991 83.4132 70.2912ZM86.2882 69.4091V70.2912C86.2882 70.6179 86.3644 70.9283 86.5169 71.2223C86.6693 71.5163 86.9525 71.6634 87.3663 71.6634C87.8182 71.6634 88.115 71.5163 88.2566 71.2223C88.4036 70.9283 88.4771 70.6179 88.4771 70.2912V69.4091C88.4771 69.0824 88.409 68.7666 88.2729 68.4616C88.1368 68.1567 87.8346 68.0043 87.3663 68.0043C86.9361 68.0043 86.6476 68.1622 86.5005 68.478C86.359 68.7884 86.2882 69.0987 86.2882 69.4091ZM84.8017 83L96.3017 66.2727H98.6213L87.1213 83H84.8017Z" fill="white"/>
<path d="M145 72.5C145 112.541 112.541 145 72.5 145C32.4594 145 0 112.541 0 72.5C0 32.4594 32.4594 0 72.5 0C112.541 0 145 32.4594 145 72.5ZM17.4727 72.5C17.4727 102.891 42.1093 127.527 72.5 127.527C102.891 127.527 127.527 102.891 127.527 72.5C127.527 42.1093 102.891 17.4727 72.5 17.4727C42.1093 17.4727 17.4727 42.1093 17.4727 72.5Z" fill="#D9D9D9"/>
<path d="M20.8554 35.1017C16.9475 32.2717 11.4331 33.1253 9.09343 37.345C2.66931 48.9316 -0.484983 62.1117 0.0604497 75.46C0.72532 91.7313 6.84891 107.305 17.4445 119.671C28.0401 132.038 42.4906 140.477 58.4675 143.629C74.4445 146.781 91.0173 144.462 105.516 137.046C120.014 129.63 131.593 117.549 138.388 102.75C145.183 87.9498 146.797 71.2936 142.97 55.4646C139.144 39.6357 130.1 25.556 117.295 15.4942C106.791 7.23989 94.2574 2.08401 81.1026 0.512079C76.3118 -0.0604089 72.3924 3.91149 72.4 8.73644C72.4075 13.5614 76.3493 17.3958 81.1147 18.1512C90.3354 19.6128 99.0834 23.4055 106.499 29.2328C116.218 36.8696 123.082 47.5561 125.987 59.5702C128.891 71.5843 127.666 84.2264 122.509 95.4593C117.352 106.692 108.563 115.862 97.5587 121.49C86.5546 127.119 73.9758 128.879 61.8494 126.487C49.723 124.094 38.7551 117.689 30.7131 108.303C22.671 98.9168 18.0232 87.0965 17.5186 74.7466C17.1336 65.3231 19.1779 56.0101 23.3891 47.678C25.5656 43.3718 24.7633 37.9316 20.8554 35.1017Z" fill="#8F00FF"/>
</svg>
