<svg width="145" height="208" viewBox="0 0 145 208" fill="none" xmlns="http://www.w3.org/2000/svg">
<path d="M20.8529 166.663V164.455H32.458V166.663H27.9623V179H25.3486V166.663H20.8529ZM38.5526 172.608V179H35.9816V164.455H38.4958V169.945H38.6236C38.8793 169.329 39.2747 168.844 39.8097 168.489C40.3495 168.129 41.036 167.949 41.8694 167.949C42.6269 167.949 43.2874 168.107 43.8509 168.425C44.4143 168.742 44.8499 169.206 45.1577 169.817C45.4702 170.428 45.6265 171.173 45.6265 172.054V179H43.0554V172.452C43.0554 171.718 42.866 171.147 42.4873 170.74C42.1132 170.328 41.5876 170.122 40.9105 170.122C40.456 170.122 40.0488 170.222 39.689 170.42C39.3338 170.615 39.0545 170.896 38.8509 171.266C38.652 171.635 38.5526 172.082 38.5526 172.608ZM56.6003 174.412V168.091H59.1713V179H56.6784V177.061H56.5648C56.3186 177.672 55.9138 178.171 55.3503 178.56C54.7916 178.948 54.1027 179.142 53.2836 179.142C52.5686 179.142 51.9365 178.983 51.3873 178.666C50.8427 178.344 50.4166 177.878 50.1088 177.267C49.8011 176.652 49.6472 175.908 49.6472 175.037V168.091H52.2182V174.639C52.2182 175.33 52.4076 175.88 52.7864 176.287C53.1652 176.694 53.6623 176.898 54.2779 176.898C54.6567 176.898 55.0236 176.805 55.3787 176.621C55.7338 176.436 56.025 176.161 56.2523 175.797C56.4843 175.428 56.6003 174.966 56.6003 174.412ZM63.2152 179V168.091H65.6726V169.945H65.8004C66.0277 169.32 66.4041 168.832 66.9297 168.482C67.4552 168.126 68.0826 167.949 68.8118 167.949C69.5504 167.949 70.173 168.129 70.6797 168.489C71.191 168.844 71.5509 169.329 71.7592 169.945H71.8728C72.1143 169.339 72.5215 168.856 73.0944 168.496C73.6721 168.131 74.3563 167.949 75.147 167.949C76.1508 167.949 76.9699 168.266 77.6044 168.901C78.2388 169.535 78.5561 170.461 78.5561 171.678V179H75.9779V172.075C75.9779 171.398 75.798 170.903 75.4382 170.591C75.0783 170.274 74.638 170.115 74.1172 170.115C73.4969 170.115 73.0116 170.309 72.6612 170.697C72.3155 171.081 72.1427 171.58 72.1427 172.196V179H69.6214V171.969C69.6214 171.405 69.451 170.955 69.1101 170.619C68.7739 170.283 68.3335 170.115 67.789 170.115C67.4197 170.115 67.0835 170.21 66.7805 170.399C66.4775 170.584 66.236 170.847 66.0561 171.188C65.8761 171.524 65.7862 171.917 65.7862 172.366V179H63.2152ZM82.678 179V164.455H85.249V169.895H85.3556C85.4882 169.63 85.6752 169.348 85.9167 169.05C86.1581 168.747 86.4848 168.489 86.8968 168.276C87.3087 168.058 87.8343 167.949 88.4735 167.949C89.3163 167.949 90.0762 168.164 90.7533 168.595C91.4351 169.021 91.9749 169.653 92.3726 170.491C92.7751 171.325 92.9763 172.348 92.9763 173.56C92.9763 174.758 92.7798 175.776 92.3868 176.614C91.9938 177.452 91.4588 178.091 90.7817 178.531C90.1046 178.972 89.3376 179.192 88.4806 179.192C87.8556 179.192 87.3371 179.088 86.9252 178.879C86.5132 178.671 86.1818 178.42 85.9309 178.126C85.6846 177.828 85.4929 177.546 85.3556 177.281H85.2064V179H82.678ZM85.1993 173.545C85.1993 174.251 85.2988 174.869 85.4976 175.399C85.7012 175.929 85.9924 176.344 86.3712 176.642C86.7547 176.936 87.2187 177.082 87.7632 177.082C88.3314 177.082 88.8073 176.931 89.1908 176.628C89.5743 176.32 89.8632 175.901 90.0573 175.371C90.2561 174.836 90.3556 174.227 90.3556 173.545C90.3556 172.868 90.2585 172.267 90.0644 171.741C89.8703 171.216 89.5814 170.804 89.1979 170.506C88.8144 170.207 88.3362 170.058 87.7632 170.058C87.214 170.058 86.7476 170.203 86.3641 170.491C85.9806 170.78 85.6894 171.185 85.4905 171.706C85.2964 172.227 85.1993 172.84 85.1993 173.545ZM99.1331 172.608V179H96.562V168.091H99.0194V169.945H99.1473C99.3982 169.334 99.7983 168.848 100.348 168.489C100.902 168.129 101.586 167.949 102.4 167.949C103.153 167.949 103.809 168.11 104.367 168.432C104.931 168.754 105.366 169.22 105.674 169.831C105.987 170.442 106.141 171.183 106.136 172.054V179H103.565V172.452C103.565 171.723 103.375 171.152 102.997 170.74C102.623 170.328 102.104 170.122 101.441 170.122C100.991 170.122 100.591 170.222 100.241 170.42C99.8954 170.615 99.6231 170.896 99.4243 171.266C99.2301 171.635 99.1331 172.082 99.1331 172.608ZM113.289 179.22C112.597 179.22 111.975 179.097 111.421 178.851C110.872 178.6 110.436 178.231 110.114 177.743C109.797 177.255 109.638 176.654 109.638 175.939C109.638 175.323 109.752 174.814 109.979 174.412C110.206 174.009 110.516 173.688 110.909 173.446C111.302 173.205 111.745 173.022 112.238 172.899C112.735 172.771 113.249 172.679 113.779 172.622C114.418 172.556 114.936 172.497 115.334 172.445C115.732 172.388 116.021 172.303 116.201 172.189C116.385 172.071 116.478 171.888 116.478 171.642V171.599C116.478 171.064 116.319 170.65 116.002 170.357C115.685 170.063 115.228 169.916 114.631 169.916C114.001 169.916 113.502 170.054 113.132 170.328C112.768 170.603 112.522 170.927 112.394 171.301L109.993 170.96C110.183 170.297 110.495 169.743 110.931 169.298C111.366 168.848 111.899 168.512 112.529 168.29C113.159 168.062 113.855 167.949 114.617 167.949C115.142 167.949 115.666 168.01 116.186 168.134C116.707 168.257 117.183 168.46 117.614 168.744C118.045 169.024 118.391 169.405 118.651 169.888C118.916 170.371 119.049 170.974 119.049 171.699V179H116.577V177.501H116.492C116.336 177.804 116.115 178.089 115.831 178.354C115.552 178.614 115.199 178.825 114.773 178.986C114.352 179.142 113.857 179.22 113.289 179.22ZM113.956 177.331C114.472 177.331 114.92 177.229 115.299 177.026C115.677 176.817 115.969 176.543 116.172 176.202C116.381 175.861 116.485 175.489 116.485 175.087V173.801C116.404 173.867 116.267 173.929 116.073 173.986C115.883 174.043 115.67 174.092 115.434 174.135C115.197 174.178 114.963 174.215 114.731 174.249C114.499 174.282 114.297 174.31 114.127 174.334C113.743 174.386 113.4 174.471 113.097 174.589C112.794 174.708 112.555 174.874 112.38 175.087C112.204 175.295 112.117 175.565 112.117 175.896C112.117 176.37 112.29 176.727 112.635 176.969C112.981 177.21 113.421 177.331 113.956 177.331ZM123.034 179V168.091H125.605V179H123.034ZM124.327 166.543C123.919 166.543 123.569 166.408 123.275 166.138C122.982 165.863 122.835 165.534 122.835 165.151C122.835 164.762 122.982 164.433 123.275 164.163C123.569 163.889 123.919 163.751 124.327 163.751C124.738 163.751 125.089 163.889 125.378 164.163C125.671 164.433 125.818 164.762 125.818 165.151C125.818 165.534 125.671 165.863 125.378 166.138C125.089 166.408 124.738 166.543 124.327 166.543ZM132.22 164.455V179H129.649V164.455H132.22ZM46.7504 203H41.8214V188.455H46.8498C48.2939 188.455 49.5344 188.746 50.5714 189.328C51.613 189.906 52.4132 190.737 52.9719 191.821C53.5307 192.905 53.81 194.203 53.81 195.713C53.81 197.228 53.5283 198.53 52.9648 199.619C52.4061 200.708 51.5988 201.544 50.543 202.126C49.4918 202.709 48.2276 203 46.7504 203ZM44.4563 200.72H46.6225C47.6358 200.72 48.4809 200.536 49.158 200.166C49.8351 199.792 50.3441 199.236 50.685 198.497C51.0259 197.754 51.1964 196.826 51.1964 195.713C51.1964 194.6 51.0259 193.677 50.685 192.943C50.3441 192.205 49.8398 191.653 49.1722 191.288C48.5094 190.919 47.6855 190.734 46.7006 190.734H44.4563V200.72ZM62.4295 203.213C61.3357 203.213 60.3911 202.986 59.5957 202.531C58.8049 202.072 58.1965 201.423 57.7704 200.585C57.3442 199.742 57.1312 198.75 57.1312 197.609C57.1312 196.487 57.3442 195.502 57.7704 194.655C58.2013 193.803 58.8026 193.14 59.5744 192.666C60.3461 192.188 61.2529 191.949 62.2945 191.949C62.9669 191.949 63.6014 192.058 64.1979 192.276C64.7993 192.489 65.3296 192.82 65.7889 193.27C66.2529 193.72 66.6174 194.293 66.8826 194.989C67.1478 195.68 67.2803 196.504 67.2803 197.46V198.249H58.3386V196.516H64.8158C64.8111 196.023 64.7046 195.585 64.4962 195.202C64.2879 194.813 63.9967 194.508 63.6227 194.286C63.2533 194.063 62.8225 193.952 62.33 193.952C61.8045 193.952 61.3428 194.08 60.9451 194.335C60.5474 194.586 60.2372 194.918 60.0147 195.33C59.7969 195.737 59.6856 196.184 59.6809 196.672V198.185C59.6809 198.819 59.7969 199.364 60.0289 199.818C60.2609 200.268 60.5853 200.614 61.0019 200.855C61.4186 201.092 61.9063 201.21 62.465 201.21C62.839 201.21 63.1776 201.158 63.4806 201.054C63.7836 200.945 64.0464 200.786 64.269 200.578C64.4915 200.37 64.6596 200.112 64.7732 199.804L67.1738 200.074C67.0223 200.708 66.7335 201.262 66.3073 201.736C65.8859 202.205 65.3461 202.569 64.688 202.83C64.0299 203.085 63.277 203.213 62.4295 203.213ZM79.4776 194.974L77.1338 195.23C77.0675 194.993 76.9515 194.771 76.7858 194.562C76.6248 194.354 76.407 194.186 76.1324 194.058C75.8578 193.93 75.5216 193.866 75.1239 193.866C74.5888 193.866 74.139 193.982 73.7744 194.214C73.4146 194.446 73.237 194.747 73.2418 195.116C73.237 195.434 73.353 195.692 73.5898 195.891C73.8312 196.089 74.229 196.253 74.783 196.381L76.6437 196.778C77.6759 197.001 78.443 197.354 78.9449 197.837C79.4515 198.32 79.7072 198.952 79.7119 199.733C79.7072 200.42 79.506 201.026 79.1082 201.551C78.7152 202.072 78.1684 202.479 77.4676 202.773C76.7669 203.066 75.9619 203.213 75.0528 203.213C73.7176 203.213 72.6428 202.934 71.8284 202.375C71.014 201.812 70.5287 201.028 70.3724 200.024L72.8795 199.783C72.9932 200.275 73.2347 200.647 73.604 200.898C73.9733 201.149 74.4539 201.274 75.0457 201.274C75.6565 201.274 76.1466 201.149 76.5159 200.898C76.89 200.647 77.077 200.337 77.077 199.967C77.077 199.655 76.9562 199.397 76.7148 199.193C76.478 198.99 76.1087 198.833 75.6068 198.724L73.746 198.334C72.6996 198.116 71.9255 197.749 71.4236 197.233C70.9217 196.712 70.6731 196.054 70.6778 195.259C70.6731 194.586 70.8554 194.004 71.2247 193.511C71.5988 193.014 72.1172 192.631 72.7801 192.361C73.4477 192.086 74.2171 191.949 75.0884 191.949C76.3668 191.949 77.3729 192.221 78.1068 192.766C78.8455 193.31 79.3024 194.046 79.4776 194.974ZM83.232 203V192.091H85.803V203H83.232ZM84.5246 190.543C84.1174 190.543 83.767 190.408 83.4734 190.138C83.1799 189.863 83.0331 189.534 83.0331 189.151C83.0331 188.762 83.1799 188.433 83.4734 188.163C83.767 187.889 84.1174 187.751 84.5246 187.751C84.9365 187.751 85.2869 187.889 85.5757 188.163C85.8693 188.433 86.0161 188.762 86.0161 189.151C86.0161 189.534 85.8693 189.863 85.5757 190.138C85.2869 190.408 84.9365 190.543 84.5246 190.543ZM94.5911 207.318C93.6678 207.318 92.8747 207.193 92.2119 206.942C91.549 206.696 91.0163 206.364 90.6138 205.947C90.2114 205.531 89.932 205.069 89.7758 204.562L92.0911 204.001C92.1953 204.214 92.3468 204.425 92.5457 204.634C92.7445 204.847 93.012 205.022 93.3482 205.159C93.6891 205.301 94.1176 205.372 94.6337 205.372C95.3629 205.372 95.9666 205.195 96.4448 204.839C96.923 204.489 97.1621 203.911 97.1621 203.107V201.04H97.0343C96.9017 201.305 96.7076 201.577 96.4519 201.857C96.201 202.136 95.8672 202.37 95.4505 202.56C95.0386 202.749 94.5201 202.844 93.8951 202.844C93.057 202.844 92.2971 202.647 91.6153 202.254C90.9382 201.857 90.3984 201.265 89.996 200.479C89.5982 199.688 89.3994 198.698 89.3994 197.51C89.3994 196.312 89.5982 195.301 89.996 194.477C90.3984 193.649 90.9406 193.021 91.6224 192.595C92.3042 192.164 93.0641 191.949 93.9022 191.949C94.5414 191.949 95.067 192.058 95.4789 192.276C95.8956 192.489 96.227 192.747 96.4732 193.05C96.7194 193.348 96.9065 193.63 97.0343 193.895H97.1763V192.091H99.7119V203.178C99.7119 204.11 99.4893 204.882 99.0442 205.493C98.5992 206.104 97.9907 206.561 97.219 206.864C96.4472 207.167 95.5712 207.318 94.5911 207.318ZM94.6124 200.827C95.1569 200.827 95.621 200.694 96.0045 200.429C96.388 200.164 96.6792 199.783 96.8781 199.286C97.0769 198.788 97.1763 198.192 97.1763 197.496C97.1763 196.809 97.0769 196.208 96.8781 195.692C96.6839 195.176 96.3951 194.776 96.0116 194.491C95.6328 194.203 95.1664 194.058 94.6124 194.058C94.0395 194.058 93.5613 194.207 93.1778 194.506C92.7942 194.804 92.5054 195.214 92.3113 195.734C92.1172 196.25 92.0201 196.838 92.0201 197.496C92.0201 198.163 92.1172 198.748 92.3113 199.25C92.5102 199.747 92.8013 200.135 93.1849 200.415C93.5731 200.689 94.049 200.827 94.6124 200.827ZM106.318 196.608V203H103.747V192.091H106.204V193.945H106.332C106.583 193.334 106.983 192.848 107.532 192.489C108.086 192.129 108.77 191.949 109.585 191.949C110.338 191.949 110.993 192.11 111.552 192.432C112.116 192.754 112.551 193.22 112.859 193.831C113.172 194.442 113.325 195.183 113.321 196.054V203H110.75V196.452C110.75 195.723 110.56 195.152 110.181 194.74C109.807 194.328 109.289 194.122 108.626 194.122C108.176 194.122 107.776 194.222 107.426 194.42C107.08 194.615 106.808 194.896 106.609 195.266C106.415 195.635 106.318 196.082 106.318 196.608Z" fill="white"/>
<path d="M54.6449 66.044C55.6196 66.044 56.5425 66.1992 57.4137 66.5096C58.2849 66.8145 59.0554 67.2964 59.7251 67.9553C60.4003 68.6141 60.9285 69.4744 61.3097 70.5362C61.6963 71.5926 61.8923 72.8722 61.8977 74.375C61.9032 75.7472 61.7317 76.9805 61.3832 78.0749C61.0401 79.1639 60.5473 80.0923 59.9048 80.8601C59.2678 81.6278 58.5 82.2159 57.6016 82.6243C56.7086 83.0272 55.7121 83.2287 54.6122 83.2287C53.3762 83.2287 52.2899 82.9918 51.3533 82.5181C50.4168 82.0444 49.6708 81.4073 49.1154 80.6069C48.56 79.8065 48.236 78.9162 48.1435 77.9361H52.6193C52.7282 78.4425 52.9678 78.81 53.3381 79.0387C53.7083 79.262 54.133 79.3736 54.6122 79.3736C55.5705 79.3736 56.2702 78.9598 56.7113 78.1321C57.1578 77.299 57.3838 76.1882 57.3892 74.7997H57.2912C57.0788 75.3116 56.7576 75.7499 56.3274 76.1147C55.8973 76.4795 55.3963 76.7599 54.8246 76.956C54.2528 77.152 53.6484 77.25 53.0114 77.25C52.004 77.25 51.1219 77.024 50.3651 76.5721C49.6082 76.1147 49.0174 75.4912 48.5927 74.7017C48.168 73.9067 47.9529 73.0028 47.9474 71.9901C47.942 70.803 48.2224 69.763 48.7887 68.87C49.355 67.977 50.1418 67.2828 51.1491 66.7873C52.1565 66.2918 53.3217 66.044 54.6449 66.044ZM54.6776 69.4744C54.2256 69.4744 53.8227 69.5779 53.4688 69.7848C53.1203 69.9917 52.8453 70.2721 52.6438 70.6261C52.4478 70.98 52.3525 71.3802 52.358 71.8267C52.3634 72.2732 52.4641 72.6734 52.6602 73.0273C52.8616 73.3813 53.1339 73.6617 53.4769 73.8686C53.8254 74.0755 54.2256 74.179 54.6776 74.179C55.0097 74.179 55.3174 74.1218 55.6005 74.0075C55.8836 73.8877 56.1287 73.7216 56.3356 73.5092C56.5479 73.2914 56.7113 73.041 56.8256 72.7578C56.9454 72.4692 57.0026 72.1589 56.9972 71.8267C56.9917 71.3802 56.8883 70.98 56.6868 70.6261C56.4853 70.2721 56.2103 69.9917 55.8619 69.7848C55.5134 69.5779 55.1186 69.4744 54.6776 69.4744ZM72.294 83.2287C70.9437 83.2287 69.7376 83.0191 68.6758 82.5998C67.6194 82.1805 66.7863 81.6115 66.1765 80.8928C65.5721 80.174 65.2699 79.3627 65.2699 78.4588C65.2699 77.7673 65.4414 77.1357 65.7845 76.5639C66.1329 75.9922 66.6012 75.5185 67.1893 75.1428C67.7773 74.7616 68.4335 74.5166 69.1577 74.4077V74.277C68.2048 74.1136 67.4207 73.6916 66.8054 73.011C66.1956 72.3249 65.8906 71.5163 65.8906 70.5852C65.8906 69.7086 66.1683 68.9299 66.7237 68.2493C67.2791 67.5632 68.0387 67.0241 69.0025 66.6321C69.9663 66.2401 71.0635 66.044 72.294 66.044C73.5246 66.044 74.6218 66.2428 75.5856 66.6403C76.5494 67.0323 77.309 67.5714 77.8644 68.2575C78.4197 68.9381 78.6974 69.714 78.6974 70.5852C78.6974 71.5218 78.3871 72.3304 77.7663 73.011C77.1456 73.6916 76.367 74.1136 75.4304 74.277V74.4077C76.1492 74.5166 76.8026 74.7616 77.3906 75.1428C77.9787 75.5185 78.447 75.9922 78.7955 76.5639C79.1439 77.1357 79.3182 77.7673 79.3182 78.4588C79.3182 79.3627 79.0133 80.174 78.4034 80.8928C77.799 81.6115 76.9659 82.1805 75.9041 82.5998C74.8478 83.0191 73.6444 83.2287 72.294 83.2287ZM72.294 80.0923C72.7242 80.0923 73.1054 80.0052 73.4375 79.831C73.7697 79.6567 74.031 79.4171 74.2216 79.1122C74.4176 78.8018 74.5156 78.4534 74.5156 78.0668C74.5156 77.6802 74.4176 77.3371 74.2216 77.0376C74.031 76.7382 73.7697 76.504 73.4375 76.3352C73.1054 76.161 72.7242 76.0739 72.294 76.0739C71.8693 76.0739 71.4882 76.161 71.1506 76.3352C70.8184 76.504 70.5543 76.7382 70.3583 77.0376C70.1677 77.3371 70.0724 77.6802 70.0724 78.0668C70.0724 78.4534 70.1677 78.7991 70.3583 79.104C70.5543 79.409 70.8184 79.6513 71.1506 79.831C71.4882 80.0052 71.8693 80.0923 72.294 80.0923ZM72.294 72.9375C72.6752 72.9375 73.0128 72.8585 73.3068 72.7006C73.6009 72.5427 73.8323 72.3249 74.0011 72.0472C74.1699 71.7695 74.2543 71.4564 74.2543 71.108C74.2543 70.7595 74.1699 70.4518 74.0011 70.185C73.8323 69.9128 73.6009 69.7004 73.3068 69.5479C73.0128 69.39 72.6752 69.3111 72.294 69.3111C71.9183 69.3111 71.5807 69.39 71.2813 69.5479C70.9872 69.7004 70.7558 69.9128 70.587 70.185C70.4182 70.4518 70.3338 70.7595 70.3338 71.108C70.3338 71.4564 70.4182 71.7695 70.587 72.0472C70.7558 72.3195 70.9872 72.5373 71.2813 72.7006C71.5807 72.8585 71.9183 72.9375 72.294 72.9375ZM92.5282 79.8636V78.9815C92.5282 78.2737 92.6807 77.6203 92.9856 77.0213C93.296 76.4223 93.7452 75.9405 94.3333 75.5756C94.9214 75.2108 95.6374 75.0284 96.4814 75.0284C97.3471 75.0284 98.0741 75.2081 98.6621 75.5675C99.2556 75.9268 99.7049 76.406 100.01 77.005C100.315 77.6039 100.467 78.2628 100.467 78.9815V79.8636C100.467 80.5715 100.312 81.2249 100.002 81.8239C99.6967 82.4228 99.2475 82.9047 98.654 83.2695C98.0604 83.6344 97.3362 83.8168 96.4814 83.8168C95.6265 83.8168 94.905 83.6344 94.3169 83.2695C93.7289 82.9047 93.2824 82.4228 92.9775 81.8239C92.678 81.2249 92.5282 80.5715 92.5282 79.8636ZM95.3706 78.9815V79.8636C95.3706 80.174 95.4468 80.4817 95.5993 80.7866C95.7572 81.0861 96.0512 81.2358 96.4814 81.2358C96.9333 81.2358 97.2301 81.0888 97.3716 80.7947C97.5187 80.5007 97.5922 80.1903 97.5922 79.8636V78.9815C97.5922 78.6548 97.5241 78.339 97.388 78.0341C97.2518 77.7292 96.9496 77.5767 96.4814 77.5767C96.0512 77.5767 95.7572 77.7292 95.5993 78.0341C95.4468 78.339 95.3706 78.6548 95.3706 78.9815ZM83.7726 70.2912V69.4091C83.7726 68.6903 83.9277 68.0315 84.2381 67.4325C84.5539 66.8336 85.0059 66.3544 85.5939 65.995C86.182 65.6357 86.8926 65.456 87.7257 65.456C88.5915 65.456 89.3184 65.6357 89.9064 65.995C90.4999 66.3544 90.9492 66.8336 91.2541 67.4325C91.559 68.0315 91.7115 68.6903 91.7115 69.4091V70.2912C91.7115 71.0099 91.5563 71.6661 91.2459 72.2596C90.941 72.8531 90.4918 73.3268 89.8983 73.6808C89.3048 74.0347 88.5806 74.2116 87.7257 74.2116C86.8708 74.2116 86.1493 74.032 85.5613 73.6726C84.9732 73.3132 84.5267 72.8368 84.2218 72.2433C83.9223 71.6497 83.7726 70.9991 83.7726 70.2912ZM86.6476 69.4091V70.2912C86.6476 70.6179 86.7238 70.9283 86.8763 71.2223C87.0287 71.5163 87.3119 71.6634 87.7257 71.6634C88.1776 71.6634 88.4744 71.5163 88.616 71.2223C88.763 70.9283 88.8365 70.6179 88.8365 70.2912V69.4091C88.8365 69.0824 88.7684 68.7666 88.6323 68.4616C88.4962 68.1567 88.194 68.0043 87.7257 68.0043C87.2955 68.0043 87.0069 68.1622 86.8599 68.478C86.7183 68.7884 86.6476 69.0987 86.6476 69.4091ZM85.1611 83L96.6611 66.2727H98.9807L87.4807 83H85.1611Z" fill="white"/>
<path d="M145 72.5C145 112.541 112.541 145 72.5 145C32.4594 145 0 112.541 0 72.5C0 32.4594 32.4594 0 72.5 0C112.541 0 145 32.4594 145 72.5ZM17.4727 72.5C17.4727 102.891 42.1093 127.527 72.5 127.527C102.891 127.527 127.527 102.891 127.527 72.5C127.527 42.1093 102.891 17.4727 72.5 17.4727C42.1093 17.4727 17.4727 42.1093 17.4727 72.5Z" fill="#D9D9D9"/>
<path d="M63.0908 9.43442C62.3788 4.66228 57.9111 1.31915 53.2591 2.59956C38.0758 6.77861 24.58 15.8174 14.9159 28.451C3.47292 43.41 -1.69969 62.235 0.49303 80.9408C2.68575 99.6465 12.0717 116.765 26.6639 128.672C41.2562 140.579 59.9094 146.341 78.6748 144.737C97.4402 143.132 114.845 134.289 127.205 120.078C139.564 105.867 145.909 87.4038 144.895 68.5973C143.881 49.7907 135.589 32.1168 121.773 19.3168C110.105 8.50669 95.2706 1.88959 79.5983 0.348079C74.7965 -0.12422 70.9609 3.92868 71.0692 8.75242C71.1775 13.5762 75.1985 17.3274 79.9787 17.9831C91.0984 19.5085 101.562 24.4117 109.898 32.1341C120.384 41.8492 126.678 55.2637 127.447 69.5378C128.217 83.812 123.402 97.8253 114.021 108.611C104.64 119.398 91.4296 126.11 77.1866 127.327C62.9437 128.545 48.786 124.172 37.7106 115.134C26.6351 106.097 19.5112 93.1041 17.8469 78.9065C16.1827 64.7089 20.1087 50.4208 28.7938 39.0669C35.6976 30.0418 45.1777 23.4338 55.8772 20.0433C60.4767 18.5858 63.8028 14.2066 63.0908 9.43442Z" fill="#8F00FF"/>
</svg>
