<svg width="145" height="208" viewBox="0 0 145 208" fill="none" xmlns="http://www.w3.org/2000/svg">
<path d="M56.7131 169.362H54.0568C53.9811 168.927 53.8414 168.541 53.6378 168.205C53.4342 167.864 53.1809 167.575 52.8778 167.338C52.5748 167.101 52.2292 166.924 51.8409 166.805C51.4574 166.682 51.0431 166.621 50.598 166.621C49.8073 166.621 49.1065 166.82 48.4957 167.217C47.8849 167.61 47.4067 168.188 47.0611 168.95C46.7154 169.708 46.5426 170.634 46.5426 171.727C46.5426 172.84 46.7154 173.777 47.0611 174.54C47.4115 175.297 47.8897 175.87 48.4957 176.259C49.1065 176.642 49.8049 176.834 50.5909 176.834C51.0265 176.834 51.4337 176.777 51.8125 176.663C52.196 176.545 52.5393 176.372 52.8423 176.145C53.1501 175.918 53.4081 175.638 53.6165 175.307C53.8295 174.975 53.9763 174.597 54.0568 174.17L56.7131 174.185C56.6136 174.876 56.3982 175.525 56.0668 176.131C55.7401 176.737 55.3116 177.272 54.7812 177.736C54.2509 178.195 53.6307 178.555 52.9205 178.815C52.2102 179.071 51.4219 179.199 50.5554 179.199C49.277 179.199 48.1359 178.903 47.1321 178.311C46.1283 177.719 45.3376 176.865 44.7599 175.747C44.1823 174.63 43.8935 173.29 43.8935 171.727C43.8935 170.16 44.1847 168.82 44.767 167.707C45.3494 166.59 46.1425 165.735 47.1463 165.143C48.1501 164.552 49.2865 164.256 50.5554 164.256C51.3651 164.256 52.1179 164.369 52.8139 164.597C53.5099 164.824 54.1302 165.158 54.6747 165.598C55.2192 166.034 55.6667 166.569 56.017 167.203C56.3722 167.833 56.6042 168.553 56.7131 169.362ZM65.171 179.213C64.1056 179.213 63.1823 178.979 62.4011 178.51C61.6198 178.041 61.0138 177.385 60.5829 176.543C60.1567 175.7 59.9437 174.715 59.9437 173.588C59.9437 172.461 60.1567 171.474 60.5829 170.626C61.0138 169.779 61.6198 169.121 62.4011 168.652C63.1823 168.183 64.1056 167.949 65.171 167.949C66.2363 167.949 67.1596 168.183 67.9408 168.652C68.7221 169.121 69.3258 169.779 69.7519 170.626C70.1828 171.474 70.3982 172.461 70.3982 173.588C70.3982 174.715 70.1828 175.7 69.7519 176.543C69.3258 177.385 68.7221 178.041 67.9408 178.51C67.1596 178.979 66.2363 179.213 65.171 179.213ZM65.1852 177.153C65.7628 177.153 66.2458 176.995 66.634 176.678C67.0223 176.356 67.3111 175.925 67.5005 175.385C67.6946 174.845 67.7917 174.244 67.7917 173.581C67.7917 172.913 67.6946 172.31 67.5005 171.77C67.3111 171.225 67.0223 170.792 66.634 170.47C66.2458 170.148 65.7628 169.987 65.1852 169.987C64.5933 169.987 64.1009 170.148 63.7079 170.47C63.3196 170.792 63.0284 171.225 62.8343 171.77C62.6449 172.31 62.5502 172.913 62.5502 173.581C62.5502 174.244 62.6449 174.845 62.8343 175.385C63.0284 175.925 63.3196 176.356 63.7079 176.678C64.1009 176.995 64.5933 177.153 65.1852 177.153ZM76.5514 164.455V179H73.9804V164.455H76.5514ZM85.3538 179.213C84.2884 179.213 83.3651 178.979 82.5839 178.51C81.8026 178.041 81.1966 177.385 80.7657 176.543C80.3396 175.7 80.1265 174.715 80.1265 173.588C80.1265 172.461 80.3396 171.474 80.7657 170.626C81.1966 169.779 81.8026 169.121 82.5839 168.652C83.3651 168.183 84.2884 167.949 85.3538 167.949C86.4191 167.949 87.3424 168.183 88.1237 168.652C88.9049 169.121 89.5086 169.779 89.9347 170.626C90.3656 171.474 90.581 172.461 90.581 173.588C90.581 174.715 90.3656 175.7 89.9347 176.543C89.5086 177.385 88.9049 178.041 88.1237 178.51C87.3424 178.979 86.4191 179.213 85.3538 179.213ZM85.368 177.153C85.9456 177.153 86.4286 176.995 86.8168 176.678C87.2051 176.356 87.4939 175.925 87.6833 175.385C87.8774 174.845 87.9745 174.244 87.9745 173.581C87.9745 172.913 87.8774 172.31 87.6833 171.77C87.4939 171.225 87.2051 170.792 86.8168 170.47C86.4286 170.148 85.9456 169.987 85.368 169.987C84.7761 169.987 84.2837 170.148 83.8907 170.47C83.5024 170.792 83.2112 171.225 83.0171 171.77C82.8277 172.31 82.733 172.913 82.733 173.581C82.733 174.244 82.8277 174.845 83.0171 175.385C83.2112 175.925 83.5024 176.356 83.8907 176.678C84.2837 176.995 84.7761 177.153 85.368 177.153ZM94.1632 179V168.091H96.6561V169.909H96.7697C96.9686 169.279 97.3095 168.794 97.7925 168.453C98.2802 168.107 98.8365 167.935 99.4615 167.935C99.6035 167.935 99.7622 167.942 99.9374 167.956C100.117 167.965 100.266 167.982 100.385 168.006V170.371C100.276 170.333 100.103 170.3 99.8663 170.271C99.6343 170.238 99.4094 170.222 99.1916 170.222C98.7229 170.222 98.3015 170.323 97.9274 170.527C97.5581 170.726 97.2669 171.003 97.0538 171.358C96.8408 171.713 96.7342 172.123 96.7342 172.587V179H94.1632ZM41.0708 193.099C40.9524 192.716 40.7891 192.373 40.5807 192.07C40.3771 191.762 40.1309 191.499 39.8421 191.281C39.558 191.063 39.2313 190.9 38.862 190.791C38.4926 190.678 38.0902 190.621 37.6546 190.621C36.8733 190.621 36.1773 190.817 35.5665 191.21C34.9557 191.603 34.4751 192.181 34.1248 192.943C33.7791 193.701 33.6063 194.624 33.6063 195.713C33.6063 196.812 33.7791 197.742 34.1248 198.504C34.4704 199.267 34.951 199.847 35.5665 200.244C36.182 200.637 36.897 200.834 37.7114 200.834C38.45 200.834 39.0892 200.692 39.629 200.408C40.1735 200.124 40.5926 199.721 40.8861 199.2C41.1797 198.675 41.3265 198.059 41.3265 197.354L41.923 197.446H37.9742V195.386H43.8762V197.134C43.8762 198.379 43.611 199.456 43.0807 200.365C42.5504 201.274 41.8212 201.975 40.8932 202.467C39.9652 202.955 38.8998 203.199 37.6972 203.199C36.3572 203.199 35.1806 202.898 34.1674 202.297C33.1588 201.691 32.3705 200.831 31.8023 199.719C31.2389 198.601 30.9571 197.276 30.9571 195.741C30.9571 194.567 31.1229 193.518 31.4543 192.595C31.7905 191.672 32.2592 190.888 32.8605 190.244C33.4619 189.596 34.1674 189.103 34.977 188.767C35.7867 188.426 36.6674 188.256 37.6191 188.256C38.424 188.256 39.1745 188.374 39.8705 188.611C40.5665 188.843 41.1844 189.174 41.7242 189.605C42.2687 190.036 42.7161 190.547 43.0665 191.139C43.4169 191.731 43.6465 192.384 43.7554 193.099H41.0708ZM47.7105 203V192.091H50.2034V193.909H50.317C50.5159 193.279 50.8568 192.794 51.3397 192.453C51.8274 192.107 52.3838 191.935 53.0088 191.935C53.1508 191.935 53.3094 191.942 53.4846 191.956C53.6645 191.965 53.8137 191.982 53.9321 192.006V194.371C53.8232 194.333 53.6503 194.3 53.4136 194.271C53.1816 194.238 52.9567 194.222 52.7389 194.222C52.2701 194.222 51.8487 194.323 51.4747 194.527C51.1054 194.726 50.8142 195.003 50.6011 195.358C50.388 195.713 50.2815 196.123 50.2815 196.587V203H47.7105ZM59.9841 203.22C59.2928 203.22 58.6701 203.097 58.1162 202.851C57.5669 202.6 57.1313 202.231 56.8093 201.743C56.4921 201.255 56.3335 200.654 56.3335 199.939C56.3335 199.323 56.4471 198.814 56.6744 198.412C56.9017 198.009 57.2118 197.688 57.6048 197.446C57.9978 197.205 58.4405 197.022 58.9329 196.899C59.4301 196.771 59.9438 196.679 60.4741 196.622C61.1133 196.556 61.6318 196.497 62.0295 196.445C62.4272 196.388 62.7161 196.303 62.896 196.189C63.0806 196.071 63.173 195.888 63.173 195.642V195.599C63.173 195.064 63.0144 194.65 62.6971 194.357C62.3799 194.063 61.923 193.916 61.3264 193.916C60.6966 193.916 60.1971 194.054 59.8278 194.328C59.4632 194.603 59.217 194.927 59.0892 195.301L56.6886 194.96C56.878 194.297 57.1905 193.743 57.6261 193.298C58.0617 192.848 58.5944 192.512 59.2241 192.29C59.8538 192.062 60.5499 191.949 61.3122 191.949C61.8377 191.949 62.3609 192.01 62.8818 192.134C63.4026 192.257 63.8785 192.46 64.3093 192.744C64.7402 193.024 65.0859 193.405 65.3463 193.888C65.6114 194.371 65.744 194.974 65.744 195.699V203H63.2724V201.501H63.1872C63.0309 201.804 62.8108 202.089 62.5267 202.354C62.2473 202.614 61.8946 202.825 61.4684 202.986C61.047 203.142 60.5522 203.22 59.9841 203.22ZM60.6517 201.331C61.1678 201.331 61.6152 201.229 61.994 201.026C62.3728 200.817 62.664 200.543 62.8676 200.202C63.0759 199.861 63.1801 199.489 63.1801 199.087V197.801C63.0996 197.867 62.9623 197.929 62.7681 197.986C62.5788 198.043 62.3657 198.092 62.1289 198.135C61.8922 198.178 61.6578 198.215 61.4258 198.249C61.1938 198.282 60.9926 198.31 60.8221 198.334C60.4386 198.386 60.0953 198.471 59.7923 198.589C59.4893 198.708 59.2502 198.874 59.075 199.087C58.8998 199.295 58.8122 199.565 58.8122 199.896C58.8122 200.37 58.985 200.727 59.3306 200.969C59.6763 201.21 60.1166 201.331 60.6517 201.331ZM73.7775 203.192C72.9205 203.192 72.1535 202.972 71.4764 202.531C70.7993 202.091 70.2643 201.452 69.8713 200.614C69.4783 199.776 69.2818 198.758 69.2818 197.56C69.2818 196.348 69.4806 195.325 69.8784 194.491C70.2808 193.653 70.823 193.021 71.5048 192.595C72.1866 192.164 72.9466 191.949 73.7846 191.949C74.4238 191.949 74.9494 192.058 75.3613 192.276C75.7733 192.489 76.1 192.747 76.3414 193.05C76.5829 193.348 76.7699 193.63 76.9025 193.895H77.0091V188.455H79.5872V203H77.0588V201.281H76.9025C76.7699 201.546 76.5782 201.828 76.3272 202.126C76.0763 202.42 75.7449 202.671 75.3329 202.879C74.921 203.088 74.4025 203.192 73.7775 203.192ZM74.4949 201.082C75.0394 201.082 75.5034 200.936 75.8869 200.642C76.2704 200.344 76.5616 199.929 76.7605 199.399C76.9593 198.869 77.0588 198.251 77.0588 197.545C77.0588 196.84 76.9593 196.227 76.7605 195.706C76.5663 195.185 76.2775 194.78 75.894 194.491C75.5152 194.203 75.0488 194.058 74.4949 194.058C73.9219 194.058 73.4437 194.207 73.0602 194.506C72.6767 194.804 72.3878 195.216 72.1937 195.741C71.9996 196.267 71.9025 196.868 71.9025 197.545C71.9025 198.227 71.9996 198.836 72.1937 199.371C72.3926 199.901 72.6838 200.32 73.0673 200.628C73.4556 200.931 73.9314 201.082 74.4949 201.082ZM83.7269 203V192.091H86.2979V203H83.7269ZM85.0195 190.543C84.6123 190.543 84.2619 190.408 83.9684 190.138C83.6748 189.863 83.528 189.534 83.528 189.151C83.528 188.762 83.6748 188.433 83.9684 188.163C84.2619 187.889 84.6123 187.751 85.0195 187.751C85.4314 187.751 85.7818 187.889 86.0706 188.163C86.3642 188.433 86.511 188.762 86.511 189.151C86.511 189.534 86.3642 189.863 86.0706 190.138C85.7818 190.408 85.4314 190.543 85.0195 190.543ZM92.9127 196.608V203H90.3417V192.091H92.7991V193.945H92.927C93.1779 193.334 93.578 192.848 94.1272 192.489C94.6812 192.129 95.3654 191.949 96.1798 191.949C96.9326 191.949 97.5884 192.11 98.1471 192.432C98.7106 192.754 99.1462 193.22 99.4539 193.831C99.7664 194.442 99.9203 195.183 99.9156 196.054V203H97.3446V196.452C97.3446 195.723 97.1552 195.152 96.7764 194.74C96.4023 194.328 95.8839 194.122 95.221 194.122C94.7712 194.122 94.3711 194.222 94.0207 194.42C93.6751 194.615 93.4028 194.896 93.2039 195.266C93.0098 195.635 92.9127 196.082 92.9127 196.608ZM108.674 207.318C107.75 207.318 106.957 207.193 106.294 206.942C105.631 206.696 105.099 206.364 104.696 205.947C104.294 205.531 104.014 205.069 103.858 204.562L106.174 204.001C106.278 204.214 106.429 204.425 106.628 204.634C106.827 204.847 107.094 205.022 107.431 205.159C107.772 205.301 108.2 205.372 108.716 205.372C109.445 205.372 110.049 205.195 110.527 204.839C111.005 204.489 111.245 203.911 111.245 203.107V201.04H111.117C110.984 201.305 110.79 201.577 110.534 201.857C110.283 202.136 109.95 202.37 109.533 202.56C109.121 202.749 108.603 202.844 107.978 202.844C107.139 202.844 106.38 202.647 105.698 202.254C105.021 201.857 104.481 201.265 104.078 200.479C103.681 199.688 103.482 198.698 103.482 197.51C103.482 196.312 103.681 195.301 104.078 194.477C104.481 193.649 105.023 193.021 105.705 192.595C106.387 192.164 107.147 191.949 107.985 191.949C108.624 191.949 109.149 192.058 109.561 192.276C109.978 192.489 110.309 192.747 110.556 193.05C110.802 193.348 110.989 193.63 111.117 193.895H111.259V192.091H113.794V203.178C113.794 204.11 113.572 204.882 113.127 205.493C112.682 206.104 112.073 206.561 111.301 206.864C110.53 207.167 109.654 207.318 108.674 207.318ZM108.695 200.827C109.239 200.827 109.703 200.694 110.087 200.429C110.47 200.164 110.762 199.783 110.96 199.286C111.159 198.788 111.259 198.192 111.259 197.496C111.259 196.809 111.159 196.208 110.96 195.692C110.766 195.176 110.478 194.776 110.094 194.491C109.715 194.203 109.249 194.058 108.695 194.058C108.122 194.058 107.644 194.207 107.26 194.506C106.877 194.804 106.588 195.214 106.394 195.734C106.2 196.25 106.103 196.838 106.103 197.496C106.103 198.163 106.2 198.748 106.394 199.25C106.593 199.747 106.884 200.135 107.267 200.415C107.656 200.689 108.131 200.827 108.695 200.827Z" fill="white"/>
<path d="M54.6449 66.044C55.6196 66.044 56.5425 66.1992 57.4137 66.5096C58.2849 66.8145 59.0554 67.2964 59.7251 67.9553C60.4003 68.6141 60.9285 69.4744 61.3097 70.5362C61.6963 71.5926 61.8923 72.8722 61.8977 74.375C61.9032 75.7472 61.7317 76.9805 61.3832 78.0749C61.0401 79.1639 60.5473 80.0923 59.9048 80.8601C59.2678 81.6278 58.5 82.2159 57.6016 82.6243C56.7086 83.0272 55.7121 83.2287 54.6122 83.2287C53.3762 83.2287 52.2899 82.9918 51.3533 82.5181C50.4168 82.0444 49.6708 81.4073 49.1154 80.6069C48.56 79.8065 48.236 78.9162 48.1435 77.9361H52.6193C52.7282 78.4425 52.9678 78.81 53.3381 79.0387C53.7083 79.262 54.133 79.3736 54.6122 79.3736C55.5705 79.3736 56.2702 78.9598 56.7113 78.1321C57.1578 77.299 57.3838 76.1882 57.3892 74.7997H57.2912C57.0788 75.3116 56.7576 75.7499 56.3274 76.1147C55.8973 76.4795 55.3963 76.7599 54.8246 76.956C54.2528 77.152 53.6484 77.25 53.0114 77.25C52.004 77.25 51.1219 77.024 50.3651 76.5721C49.6082 76.1147 49.0174 75.4912 48.5927 74.7017C48.168 73.9067 47.9529 73.0028 47.9474 71.9901C47.942 70.803 48.2224 69.763 48.7887 68.87C49.355 67.977 50.1418 67.2828 51.1491 66.7873C52.1565 66.2918 53.3217 66.044 54.6449 66.044ZM54.6776 69.4744C54.2256 69.4744 53.8227 69.5779 53.4688 69.7848C53.1203 69.9917 52.8453 70.2721 52.6438 70.6261C52.4478 70.98 52.3525 71.3802 52.358 71.8267C52.3634 72.2732 52.4641 72.6734 52.6602 73.0273C52.8616 73.3813 53.1339 73.6617 53.4769 73.8686C53.8254 74.0755 54.2256 74.179 54.6776 74.179C55.0097 74.179 55.3174 74.1218 55.6005 74.0075C55.8836 73.8877 56.1287 73.7216 56.3356 73.5092C56.5479 73.2914 56.7113 73.041 56.8256 72.7578C56.9454 72.4692 57.0026 72.1589 56.9972 71.8267C56.9917 71.3802 56.8883 70.98 56.6868 70.6261C56.4853 70.2721 56.2103 69.9917 55.8619 69.7848C55.5134 69.5779 55.1186 69.4744 54.6776 69.4744ZM72 66.044C72.9747 66.044 73.8976 66.1992 74.7688 66.5096C75.64 66.8145 76.4105 67.2964 77.0803 67.9553C77.7554 68.6141 78.2836 69.4744 78.6648 70.5362C79.0514 71.5926 79.2474 72.8722 79.2528 74.375C79.2583 75.7472 79.0868 76.9805 78.7383 78.0749C78.3952 79.1639 77.9025 80.0923 77.2599 80.8601C76.6229 81.6278 75.8551 82.2159 74.9567 82.6243C74.0637 83.0272 73.0672 83.2287 71.9673 83.2287C70.7313 83.2287 69.645 82.9918 68.7085 82.5181C67.7719 82.0444 67.0259 81.4073 66.4705 80.6069C65.9151 79.8065 65.5912 78.9162 65.4986 77.9361H69.9744C70.0833 78.4425 70.3229 78.81 70.6932 79.0387C71.0635 79.262 71.4882 79.3736 71.9673 79.3736C72.9257 79.3736 73.6254 78.9598 74.0664 78.1321C74.5129 77.299 74.7389 76.1882 74.7443 74.7997H74.6463C74.434 75.3116 74.1127 75.7499 73.6825 76.1147C73.2524 76.4795 72.7514 76.7599 72.1797 76.956C71.608 77.152 71.0036 77.25 70.3665 77.25C69.3591 77.25 68.477 77.024 67.7202 76.5721C66.9633 76.1147 66.3725 75.4912 65.9478 74.7017C65.5231 73.9067 65.308 73.0028 65.3026 71.9901C65.2971 70.803 65.5775 69.763 66.1438 68.87C66.7101 67.977 67.4969 67.2828 68.5043 66.7873C69.5116 66.2918 70.6769 66.044 72 66.044ZM72.0327 69.4744C71.5807 69.4744 71.1778 69.5779 70.8239 69.7848C70.4754 69.9917 70.2004 70.2721 69.9989 70.6261C69.8029 70.98 69.7076 71.3802 69.7131 71.8267C69.7185 72.2732 69.8193 72.6734 70.0153 73.0273C70.2167 73.3813 70.489 73.6617 70.832 73.8686C71.1805 74.0755 71.5807 74.179 72.0327 74.179C72.3648 74.179 72.6725 74.1218 72.9556 74.0075C73.2388 73.8877 73.4838 73.7216 73.6907 73.5092C73.9031 73.2914 74.0664 73.041 74.1808 72.7578C74.3005 72.4692 74.3577 72.1589 74.3523 71.8267C74.3468 71.3802 74.2434 70.98 74.0419 70.6261C73.8404 70.2721 73.5655 69.9917 73.217 69.7848C72.8685 69.5779 72.4737 69.4744 72.0327 69.4744ZM92.3935 79.8636V78.9815C92.3935 78.2737 92.5459 77.6203 92.8509 77.0213C93.1612 76.4223 93.6104 75.9405 94.1985 75.5756C94.7866 75.2108 95.5026 75.0284 96.3466 75.0284C97.2124 75.0284 97.9393 75.2081 98.5274 75.5675C99.1209 75.9268 99.5701 76.406 99.875 77.005C100.18 77.6039 100.332 78.2628 100.332 78.9815V79.8636C100.332 80.5715 100.177 81.2249 99.8668 81.8239C99.5619 82.4228 99.1127 82.9047 98.5192 83.2695C97.9257 83.6344 97.2015 83.8168 96.3466 83.8168C95.4917 83.8168 94.7703 83.6344 94.1822 83.2695C93.5941 82.9047 93.1476 82.4228 92.8427 81.8239C92.5432 81.2249 92.3935 80.5715 92.3935 79.8636ZM95.2358 78.9815V79.8636C95.2358 80.174 95.312 80.4817 95.4645 80.7866C95.6224 81.0861 95.9164 81.2358 96.3466 81.2358C96.7985 81.2358 97.0953 81.0888 97.2369 80.7947C97.3839 80.5007 97.4574 80.1903 97.4574 79.8636V78.9815C97.4574 78.6548 97.3893 78.339 97.2532 78.0341C97.1171 77.7292 96.8149 77.5767 96.3466 77.5767C95.9164 77.5767 95.6224 77.7292 95.4645 78.0341C95.312 78.339 95.2358 78.6548 95.2358 78.9815ZM83.6378 70.2912V69.4091C83.6378 68.6903 83.793 68.0315 84.1033 67.4325C84.4192 66.8336 84.8711 66.3544 85.4592 65.995C86.0472 65.6357 86.7578 65.456 87.5909 65.456C88.4567 65.456 89.1836 65.6357 89.7717 65.995C90.3652 66.3544 90.8144 66.8336 91.1193 67.4325C91.4243 68.0315 91.5767 68.6903 91.5767 69.4091V70.2912C91.5767 71.0099 91.4215 71.6661 91.1112 72.2596C90.8062 72.8531 90.357 73.3268 89.7635 73.6808C89.17 74.0347 88.4458 74.2116 87.5909 74.2116C86.736 74.2116 86.0146 74.032 85.4265 73.6726C84.8384 73.3132 84.3919 72.8368 84.087 72.2433C83.7875 71.6497 83.6378 70.9991 83.6378 70.2912ZM86.5128 69.4091V70.2912C86.5128 70.6179 86.589 70.9283 86.7415 71.2223C86.8939 71.5163 87.1771 71.6634 87.5909 71.6634C88.0429 71.6634 88.3396 71.5163 88.4812 71.2223C88.6282 70.9283 88.7017 70.6179 88.7017 70.2912V69.4091C88.7017 69.0824 88.6336 68.7666 88.4975 68.4616C88.3614 68.1567 88.0592 68.0043 87.5909 68.0043C87.1608 68.0043 86.8722 68.1622 86.7252 68.478C86.5836 68.7884 86.5128 69.0987 86.5128 69.4091ZM85.0263 83L96.5263 66.2727H98.8459L87.3459 83H85.0263Z" fill="white"/>
<path d="M145 72.5C145 112.541 112.541 145 72.5 145C32.4594 145 0 112.541 0 72.5C0 32.4594 32.4594 0 72.5 0C112.541 0 145 32.4594 145 72.5ZM17.4727 72.5C17.4727 102.891 42.1093 127.527 72.5 127.527C102.891 127.527 127.527 102.891 127.527 72.5C127.527 42.1093 102.891 17.4727 72.5 17.4727C42.1093 17.4727 17.4727 42.1093 17.4727 72.5Z" fill="#D9D9D9"/>
<path d="M68.9195 8.83697C68.6486 4.01963 64.5065 0.280506 59.7566 1.12849C44.0639 3.93007 29.6411 11.848 18.818 23.7712C6.0269 37.8625 -0.710681 56.4182 0.0593759 75.4336C0.829433 94.449 9.04538 112.399 22.934 125.41C36.8227 138.421 55.2703 145.449 74.2954 144.978C93.3205 144.506 111.397 136.574 124.625 122.891C137.852 109.208 145.169 90.8734 144.997 71.8433C144.825 52.8131 137.177 34.6137 123.703 21.173C112.303 9.80028 97.5061 2.60622 81.694 0.585064C76.9079 -0.0266982 72.9561 3.91292 72.924 8.73778C72.8919 13.5626 76.8022 17.4292 81.5613 18.2237C92.7755 20.0958 103.213 25.4125 111.363 33.543C121.589 43.7444 127.394 57.5577 127.525 72.0015C127.656 86.4454 122.102 100.362 112.063 110.747C102.023 121.132 88.3027 127.153 73.8627 127.51C59.4227 127.868 45.421 122.534 34.8796 112.658C24.3381 102.783 18.1023 89.1592 17.5178 74.7266C16.9333 60.294 22.0471 46.2103 31.7555 35.515C39.4931 26.9909 49.6547 21.164 60.7625 18.7389C65.4764 17.7097 69.1904 13.6543 68.9195 8.83697Z" fill="#8F00FF"/>
</svg>
