<svg width="46" height="42" viewBox="0 0 46 42" fill="none" xmlns="http://www.w3.org/2000/svg">
<path d="M16.2607 3.86719L19.0293 6.26953L20.1514 7.24414L19.1885 8.375C16.5208 11.5075 14.7451 14.289 13.7842 16.7236L13.7812 16.7314L13.7783 16.7383C13.0308 18.5748 12.5323 20.2726 12.2676 21.8359C14.3696 22.0743 16.1951 22.8991 17.6611 24.3623L17.9834 24.7012C19.538 26.4277 20.2685 28.6358 20.2686 31.1904C20.2686 33.6854 19.5292 35.8493 17.9814 37.5625L17.6611 37.8994C15.8953 39.6617 13.6081 40.5 10.9443 40.5C8.4599 40.5 6.29995 39.6528 4.5459 37.9775L4.2002 37.6309L4.1875 37.6182L4.17578 37.6045C2.32614 35.564 1.5 32.7959 1.5 29.5088C1.50001 26.1586 2.59708 22.2467 4.64844 17.8242L4.65332 17.8145L4.6582 17.8037C6.81818 13.3262 9.99422 8.72866 14.1523 4.00879L15.1367 2.8916L16.2607 3.86719ZM39.4922 3.86719L42.2607 6.26953L43.3828 7.24414L42.4199 8.375C39.7522 11.5075 37.9766 14.289 37.0156 16.7236L37.0127 16.7314L37.0098 16.7383C36.2623 18.5748 35.7637 20.2726 35.499 21.8359C37.601 22.0743 39.4265 22.8991 40.8926 24.3623L41.2148 24.7012C42.7695 26.4277 43.4999 28.6358 43.5 31.1904C43.5 33.8516 42.6587 36.1367 40.8926 37.8994C39.1268 39.6616 36.8395 40.5 34.1758 40.5C31.5257 40.5 29.2445 39.5355 27.4316 37.6309L27.4189 37.6182L27.4072 37.6045C25.5576 35.564 24.7314 32.7958 24.7314 29.5088C24.7315 26.1586 25.8285 22.2467 27.8799 17.8242L27.8848 17.8145L27.8896 17.8037C30.0496 13.3262 33.2257 8.72866 37.3838 4.00879L38.3682 2.8916L39.4922 3.86719Z" stroke="#8F00FF" stroke-width="3"/>
</svg>
